<svg width="463" height="688" fill="none" xmlns="http://www.w3.org/2000/svg"><g fill-rule="evenodd" clip-rule="evenodd" fill="#989A21"><path d="m408.5 578.2-191 83.6-.4-1 191-83.5.4 1ZM376 564l-191 83.6-.4-1 191-83.5.4 1Zm-32-14-191 83.6-.4-1 191-83.5.4 1Zm-63-28L90 605.6l-.4-1 191-83.5.4 1Zm-32-14L58 591.6l-.4-1 191-83.5.4 1Zm-32-14L26 577.6l-.4-1 191-83.5.4 1Zm96 42-191 83.6-.4-1 191-83.5.4 1Z"/><path d="M25.6 578.2 217 662l.4-1L26 577.3l-.4.9Zm31-14.3 192.2 84 .4-.8L57 562.9l-.4 1Zm32-13.9 192 84 .4-1-192-84-.4 1Zm31.8-14 192.2 84.1.4-.9-192.2-84-.4.8Zm31.7-14 192 84 .4-.9-192-84-.4 1Zm31.9-13.9 192 84 .5-.9-192-84-.4 1Zm32-13.8 192 84 .5-1-192-84-.4 1Z"/></g><path d="M240.1 664v5.6h-.7V664h.7Zm-39 0v5.6h-.7V664h.7Zm-190-89v5.6h-.7V575h.7Zm-.9-30v5.6h-.8V545h.8Zm1.8 0v5.6h-.6V545h.7Zm-2.8-28v5.6h-.7V517h.7Zm1.9 0v5.6h-.7V517h.7Zm1.9 0v5.6h-.7V517h.7Zm-4.6-28v5.6h-.7V489h.7Zm5.8 0-2 5.6h-.9L9.2 489h.8l1.7 4.8 1.8-4.8h.7Zm.1-28-2 5.6h-1l-2-5.6h.8l1.7 4.8 1.8-4.8h.7Zm-2-28-2 5.6h-1l-2-5.6H8l1.7 4.8 1.8-4.8h.7Zm1.5 0v5.6h-.7V433h.7Zm-2.4-28-2.1 5.6h-.9l-2-5.6H7l1.7 4.8 1.8-4.8h.8Zm1.4 0v5.6h-.7V405h.7Zm2 0v5.6H14V405h.8Zm-4.4-28-2.1 5.6h-.8L5.4 377H6l1.8 4.8 1.7-4.8h.8Zm1.5 0v5.6h-.7V377h.7Zm1.9 0v5.6h-.7V377h.7Zm1.9 0v5.6H15V377h.7Zm-7-28v5.6h-.8V349h.8Zm3.4 2.8 1.7 2.8H13l-1.3-2.2-1.3 2.2h-.8l1.7-2.8-1.7-2.8h.8l1.4 2.2L13 349h.9l-1.8 2.8Zm-.9-28 1.7 2.8H12l-1.4-2.2-1.2 2.2h-.9l1.8-2.8-1.8-2.8h.9l1.3 2.2L12 321h.8l-1.7 2.8Zm-1-28 1.7 2.8h-.8l-1.3-2.2-1.3 2.2h-.8l1.7-2.8-1.7-2.8h.8l1.3 2.2 1.3-2.2h.8l-1.7 2.8Zm3.4-2.8v5.6h-.7V293h.7Zm-4.3-25.2 1.7 2.8h-1l-1.3-2.2-1.3 2.2h-.8l1.7-2.8-1.7-2.8h.8l1.4 2.2 1.3-2.2h.8l-1.7 2.8Zm3.3-2.8v5.6H12V265h.7Zm1.9 0v5.6h-.7V265h.7Zm-6.2-25.2 1.7 2.8h-.8l-1.4-2.2-1.2 2.2h-.8l1.7-2.8-1.7-2.8h.8l1.3 2.2 1.3-2.2h.8l-1.7 2.8Zm3.4-2.8v5.6h-.8V237h.8Zm1.9 0v5.6h-.7V237h.7Zm1.9 0v5.6h-.7V237h.7Zm-8-25.2 1.7 2.8h-.8l-1.3-2.2-1.3 2.2H5l1.7-2.8L5 209h.8l1.4 2.2 1.2-2.2h.9l-1.8 2.8Zm3.4-2.8v5.6h-.7V209h.7Zm5.8 0-2.1 5.6h-.8l-2.1-5.6h.7l1.8 4.8 1.7-4.8h.8Zm-8.2-25.2 1.7 2.8h-.8L8 184.4l-1.2 2.2H6l1.7-2.8L6 181h.8l1.3 2.2 1.3-2.2h.8l-1.7 2.8Zm7.2-2.8-2 5.6h-.9l-2.1-5.6h.8l1.7 4.8L15 181h.7Zm254.5 469v5.6h-.8V650h.8Zm1.8 0v5.6h-.6V650h.7Zm-101.8 0v5.6h-.8V650h.8Zm1.8 0v5.6h-.6V650h.7Zm128.2-13v5.6h-.7V637h.7Zm1.9 0v5.6h-.7V637h.7Zm1.9 0v5.6h-.7V637h.7Zm-168.8 0v5.6h-.7V637h.7Zm1.9 0v5.6h-.7V637h.7Zm1.9 0v5.6h-.7V637h.7Zm194.4-14v5.6h-.7V623h.7Zm5.8 0-2 5.6h-.9l-2.1-5.6h.8l1.7 4.8 1.8-4.8h.7Zm-236.8 0v5.6h-.7V623h.7Zm5.8 0-2 5.6h-.9l-2.1-5.6h.8l1.7 4.8 1.8-4.8h.7Zm261.1-14-2.1 5.6h-.9l-2-5.6h.7l1.8 4.8 1.7-4.8h.8Zm-291 0-2.1 5.6h-.9l-2-5.6h.7l1.8 4.8 1.7-4.8h.8Zm322-15-2 5.6h-1l-2-5.6h.8l1.7 4.8 1.8-4.8h.7Zm1.5 0v5.6h-.7V594h.7Zm-356.5 0-2 5.6h-1l-2-5.6h.8l1.7 4.8 1.8-4.8h.7Zm1.5 0v5.6h-.7V594h.7Zm382.6-13-2.1 5.6h-.9l-2-5.6h.7l1.7 4.8 1.8-4.8h.8Zm1.4 0v5.6h-.7V581h.7Zm2 0v5.6h-.8V581h.8Z" fill="#282828"/><g fill="#858711"><path d="M22 577h7v1h-7v-1Z"/><path d="M22 577h7v1h-7v-1Zm0-29h7v1h-7v-1Z"/><path d="M22 548h7v1h-7v-1Zm0-56h7v1h-7v-1Z"/><path d="M22 492h7v1h-7v-1Zm0-56h7v1h-7v-1Z"/><path d="M22 436h7v1h-7v-1Zm0-56h7v1h-7v-1Z"/><path d="M22 380h7v1h-7v-1Zm0-56h7v1h-7v-1Z"/><path d="M22 324h7v1h-7v-1Zm0-56h7v1h-7v-1Z"/><path d="M22 268h7v1h-7v-1Zm0-56h7v1h-7v-1Zm0 308h7v1h-7v-1Z"/><path d="M22 520h7v1h-7v-1Zm0-56h7v1h-7v-1Zm0-56h7v1h-7v-1Zm0-56h7v1h-7v-1Z"/><path d="M22 352h7v1h-7v-1Zm0-56h7v1h-7v-1Z"/><path d="M22 296h7v1h-7v-1Zm0-56h7v1h-7v-1Zm0-56h7v1h-7v-1Z"/><path d="M22 184h7v1h-7v-1Z"/><path fill-rule="evenodd" clip-rule="evenodd" d="M26 184v394h-1V184h1Z"/></g><g fill="#262626" stroke="#FDFF83"><path d="m90 552-32 14-32-14 32-14 32 14Z"/><path d="m58 566 32-14v25l-32 14v-25Zm0 0-32-14v25l32 14v-25Zm64-78-32 14-32-14 32-14 32 14Z"/><path d="m90 502 32-14v50l-32 14v-50Zm0 0-32-14v50l32 14v-50Zm62.8-90-32 14-32-14 32-14 32 14Z"/><path d="m120.8 426 32-14v75l-32 14v-75Zm0 0-32-14v75l32 14v-75Zm160-144-32 14-32-14 32-14 32 14Z"/><path d="m248.8 296 32-14v75l-32 14v-75Zm0 0-32-14v75l32 14v-75Zm-64 28-32 14-32-14 32-14 32 14Z"/><path d="m152.8 338 32-14v50l-32 14v-50Zm0 0-32-14v50l32 14v-50Zm96 21-32 14-32-14 32-14 32 14Z"/><path d="m216.8 373 32-14v75l-32 14v-75Zm0 0-32-14v75l32 14v-75Zm192 104.6-32 14-32-14 32-14 32 14Z"/><path d="m376.8 491.6-32-14v100l32 14v-100Zm0 0 32-14v100l-32 14v-100Zm-224 38-32 14-32-14 32-14 32 14Z"/><path d="m120.8 543.6 32-14v75l-32 14v-75Zm0 0-32-14v75l32 14v-75Zm192-201-32 14-32-14 32-14 32 14Z"/><path d="m280.8 356.6 32-14v75l-32 14v-75Zm0 0-32-14v75l32 14v-75Zm32 89-32 14-32-14 32-14 32 14Z"/><path d="m280.8 459.6-32-14v100l32 14v-100Zm0 0 32-14v100l-32 14v-100Zm-128 55-32 14-32-14 32-14 32 14Z"/><path d="m120.8 528.6 32-14v15l-32 14v-15Zm0 0-32-14v15l32 14v-15Zm64-154.6-32 14-32-14 32-14 32 14Z"/><path d="m152.8 388 32-14v25l-32 14v-25Zm0 0-32-14v25l32 14v-25Zm128 102.6-32 14-32-14 32-14 32 14Z"/><path d="m248.8 504.6 32-14v50l-32 14v-50Zm0 0-32-14v50l32 14v-50Zm128 72-32 14-32-14 32-14 32 14Z"/><path d="m344.8 590.6 32-14v15l-32 14v-15Zm0 0-32-14v15l32 14v-15Zm0-60-32 14-32-14 32-14 32 14Z"/><path d="m312.8 544.6 32-14v75l-32 14v-75Zm0 0-32-14v75l32 14v-75Zm-128-25-32 14-32-14 32-14 32 14Z"/><path d="m152.8 533.6-32-14v100l32 14v-100Zm0 0 32-14v100l-32 14v-100Z"/><path d="m216.8 608.6-32 14-32-14 32-14 32 14Z"/><path d="m184.8 622.6 32-14v25l-32 14v-25Zm0 0-32-14v25l32 14v-25Zm32-114.6-32 14-32-14 32-14 32 14Z"/><path d="m184.8 522 32-14v50l-32 14v-50Zm0 0-32-14v50l32 14v-50Zm32-124.6-32 14-32-14 32-14 32 14Z"/><path d="m184.8 411.4-32-14v100l32 14v-100Zm0 0 32-14v100l-32 14v-100Zm160 10.2-32 14-32-14 32-14 32 14Zm-32 14 32-14v25l-32 14v-25Zm0 0-32-14v25l32 14v-25Z"/></g></svg>