<svg width="463" height="688" viewBox="0 0 463 688" fill="none" xmlns="http://www.w3.org/2000/svg">
<g id="data-animation">
<g id="axis">
<g id="grid-base">
<path id="Line 649 (Stroke)" fill-rule="evenodd" clip-rule="evenodd" d="M408.464 578.214L217.464 661.777L217.063 660.86L408.063 577.298L408.464 578.214Z" fill="#989A21"/>
<path id="Line 666 (Stroke)" fill-rule="evenodd" clip-rule="evenodd" d="M375.965 564.034L184.965 647.597L184.564 646.68L375.564 563.118L375.965 564.034Z" fill="#989A21"/>
<path id="Line 667 (Stroke)" fill-rule="evenodd" clip-rule="evenodd" d="M343.965 550.034L152.965 633.597L152.564 632.68L343.564 549.118L343.965 550.034Z" fill="#989A21"/>
<path id="Line 669 (Stroke)" fill-rule="evenodd" clip-rule="evenodd" d="M280.965 522.034L89.9646 605.597L89.5637 604.68L280.564 521.118L280.965 522.034Z" fill="#989A21"/>
<path id="Line 670 (Stroke)" fill-rule="evenodd" clip-rule="evenodd" d="M248.965 508.034L57.9646 591.597L57.5637 590.68L248.564 507.118L248.965 508.034Z" fill="#989A21"/>
<path id="Line 671 (Stroke)" fill-rule="evenodd" clip-rule="evenodd" d="M216.965 494.034L25.9646 577.597L25.5637 576.68L216.564 493.118L216.965 494.034Z" fill="#989A21"/>
<path id="Line 668 (Stroke)" fill-rule="evenodd" clip-rule="evenodd" d="M312.965 536.034L121.965 619.597L121.564 618.68L312.564 535.118L312.965 536.034Z" fill="#989A21"/>
<path id="Line 650 (Stroke)" fill-rule="evenodd" clip-rule="evenodd" d="M25.5635 578.176L217.063 661.957L217.464 661.041L25.9643 577.259L25.5635 578.176Z" fill="#989A21"/>
<path id="Line 660 (Stroke)" fill-rule="evenodd" clip-rule="evenodd" d="M56.5637 563.863L248.843 647.985L249.244 647.069L56.9645 562.947L56.5637 563.863Z" fill="#989A21"/>
<path id="Line 661 (Stroke)" fill-rule="evenodd" clip-rule="evenodd" d="M88.5637 549.988L280.564 633.988L280.965 633.072L88.9645 549.072L88.5637 549.988Z" fill="#989A21"/>
<path id="Line 662 (Stroke)" fill-rule="evenodd" clip-rule="evenodd" d="M120.383 536.034L312.564 620.113L312.965 619.197L120.784 535.118L120.383 536.034Z" fill="#989A21"/>
<path id="Line 663 (Stroke)" fill-rule="evenodd" clip-rule="evenodd" d="M152.097 522.034L344.097 606.034L344.498 605.118L152.498 521.118L152.097 522.034Z" fill="#989A21"/>
<path id="Line 664 (Stroke)" fill-rule="evenodd" clip-rule="evenodd" d="M184.064 508.144L376.064 592.144L376.465 591.228L184.465 507.228L184.064 508.144Z" fill="#989A21"/>
<path id="Line 665 (Stroke)" fill-rule="evenodd" clip-rule="evenodd" d="M216.064 494.269L408.064 578.269L408.465 577.353L216.465 493.353L216.064 494.269Z" fill="#989A21"/>
</g>
<g id="desc-axes">
<path id="I" d="M240.123 664V669.576H239.395V664H240.123Z" fill="#282828"/>
<path id="I_2" d="M201.123 664V669.576H200.395V664H201.123Z" fill="#282828"/>
<path id="I_3" d="M11.1235 575V580.576H10.3955V575H11.1235Z" fill="#282828"/>
<g id="II">
<path d="M10.1631 545V550.576H9.43512V545H10.1631Z" fill="#282828"/>
<path d="M12.0839 545V550.576H11.3559V545H12.0839Z" fill="#282828"/>
</g>
<g id="III">
<path d="M9.20275 517V522.576H8.47475V517H9.20275Z" fill="#282828"/>
<path d="M11.1235 517V522.576H10.3955V517H11.1235Z" fill="#282828"/>
<path d="M13.0442 517V522.576H12.3162V517H13.0442Z" fill="#282828"/>
</g>
<g id="IV">
<path d="M8.44437 489V494.576H7.71637V489H8.44437Z" fill="#282828"/>
<path d="M14.2451 489L12.1411 494.576H11.3011L9.19712 489H9.97312L11.7251 493.808L13.4771 489H14.2451Z" fill="#282828"/>
</g>
<path id="V" d="M14.3272 461L12.2232 466.576H11.3832L9.27916 461H10.0552L11.8072 465.808L13.5592 461H14.3272Z" fill="#282828"/>
<g id="VI">
<path d="M12.3244 433L10.2204 438.576H9.38038L7.27638 433H8.05238L9.80438 437.808L11.5564 433H12.3244Z" fill="#282828"/>
<path d="M13.8026 433V438.576H13.0746V433H13.8026Z" fill="#282828"/>
</g>
<g id="VII">
<path d="M11.364 405L9.25999 410.576H8.41999L6.31599 405H7.09199L8.84399 409.808L10.596 405H11.364Z" fill="#282828"/>
<path d="M12.8422 405V410.576H12.1142V405H12.8422Z" fill="#282828"/>
<path d="M14.763 405V410.576H14.035V405H14.763Z" fill="#282828"/>
</g>
<g id="VIII">
<path d="M10.4036 377L8.29962 382.576H7.45962L5.35562 377H6.13162L7.88362 381.808L9.63562 377H10.4036Z" fill="#282828"/>
<path d="M11.8819 377V382.576H11.1539V377H11.8819Z" fill="#282828"/>
<path d="M13.8026 377V382.576H13.0746V377H13.8026Z" fill="#282828"/>
<path d="M15.7234 377V382.576H14.9954V377H15.7234Z" fill="#282828"/>
</g>
<g id="IX">
<path d="M8.66312 349V354.576H7.93512V349H8.66312Z" fill="#282828"/>
<path d="M12.1359 351.792L13.8479 354.576H13.0239L11.6879 352.4L10.4159 354.576H9.60787L11.3119 351.792L9.59987 349H10.4159L11.7599 351.184L13.0399 349H13.8559L12.1359 351.792Z" fill="#282828"/>
</g>
<path id="X" d="M11.1755 323.792L12.8875 326.576H12.0635L10.7275 324.4L9.4555 326.576H8.6475L10.3515 323.792L8.6395 321H9.4555L10.7995 323.184L12.0795 321H12.8955L11.1755 323.792Z" fill="#282828"/>
<g id="XI">
<path d="M10.2151 295.792L11.9271 298.576H11.1031L9.76712 296.4L8.49512 298.576H7.68712L9.39112 295.792L7.67912 293H8.49512L9.83912 295.184L11.1191 293H11.9351L10.2151 295.792Z" fill="#282828"/>
<path d="M13.5839 293V298.576H12.8559V293H13.5839Z" fill="#282828"/>
</g>
<g id="XII">
<path d="M9.25475 267.792L10.9668 270.576H10.1427L8.80675 268.4L7.53475 270.576H6.72675L8.43075 267.792L6.71875 265H7.53475L8.87875 267.184L10.1587 265H10.9747L9.25475 267.792Z" fill="#282828"/>
<path d="M12.6235 265V270.576H11.8955V265H12.6235Z" fill="#282828"/>
<path d="M14.5442 265V270.576H13.8162V265H14.5442Z" fill="#282828"/>
</g>
<g id="XIII">
<path d="M8.29438 239.792L10.0064 242.576H9.18238L7.84638 240.4L6.57438 242.576H5.76638L7.47038 239.792L5.75838 237H6.57438L7.91838 239.184L9.19838 237H10.0144L8.29438 239.792Z" fill="#282828"/>
<path d="M11.6631 237V242.576H10.9351V237H11.6631Z" fill="#282828"/>
<path d="M13.5839 237V242.576H12.8559V237H13.5839Z" fill="#282828"/>
<path d="M15.5046 237V242.576H14.7766V237H15.5046Z" fill="#282828"/>
</g>
<g id="XIV">
<path d="M7.536 211.792L9.248 214.576H8.424L7.088 212.4L5.816 214.576H5.008L6.712 211.792L5 209H5.816L7.16 211.184L8.44 209H9.256L7.536 211.792Z" fill="#282828"/>
<path d="M10.9047 209V214.576H10.1768V209H10.9047Z" fill="#282828"/>
<path d="M16.7055 209L14.6015 214.576H13.7615L11.6575 209H12.4335L14.1855 213.808L15.9375 209H16.7055Z" fill="#282828"/>
</g>
<g id="XV">
<path d="M8.49637 183.792L10.2084 186.576H9.38437L8.04837 184.4L6.77637 186.576H5.96837L7.67237 183.792L5.96037 181H6.77637L8.12037 183.184L9.40037 181H10.2164L8.49637 183.792Z" fill="#282828"/>
<path d="M15.7451 181L13.6411 186.576H12.8011L10.6971 181H11.4731L13.2251 185.808L14.9771 181H15.7451Z" fill="#282828"/>
</g>
<g id="II_2">
<path d="M270.163 650V655.576H269.435V650H270.163Z" fill="#282828"/>
<path d="M272.084 650V655.576H271.356V650H272.084Z" fill="#282828"/>
</g>
<g id="II_3">
<path d="M170.163 650V655.576H169.435V650H170.163Z" fill="#282828"/>
<path d="M172.084 650V655.576H171.356V650H172.084Z" fill="#282828"/>
</g>
<g id="III_2">
<path d="M300.203 637V642.576H299.475V637H300.203Z" fill="#282828"/>
<path d="M302.124 637V642.576H301.396V637H302.124Z" fill="#282828"/>
<path d="M304.044 637V642.576H303.316V637H304.044Z" fill="#282828"/>
</g>
<g id="III_3">
<path d="M135.203 637V642.576H134.475V637H135.203Z" fill="#282828"/>
<path d="M137.123 637V642.576H136.395V637H137.123Z" fill="#282828"/>
<path d="M139.044 637V642.576H138.316V637H139.044Z" fill="#282828"/>
</g>
<g id="IV_2">
<path d="M333.444 623V628.576H332.716V623H333.444Z" fill="#282828"/>
<path d="M339.245 623L337.141 628.576H336.301L334.197 623H334.973L336.725 627.808L338.477 623H339.245Z" fill="#282828"/>
</g>
<g id="IV_3">
<path d="M102.444 623V628.576H101.716V623H102.444Z" fill="#282828"/>
<path d="M108.245 623L106.141 628.576H105.301L103.197 623H103.973L105.725 627.808L107.477 623H108.245Z" fill="#282828"/>
</g>
<path id="V_2" d="M369.285 609L367.181 614.576H366.341L364.237 609H365.013L366.765 613.808L368.517 609H369.285Z" fill="#282828"/>
<path id="V_3" d="M78.2848 609L76.1808 614.576H75.3408L73.2368 609H74.0128L75.7648 613.808L77.5168 609H78.2848Z" fill="#282828"/>
<g id="VI_2">
<path d="M400.324 594L398.22 599.576H397.38L395.276 594H396.052L397.804 598.808L399.556 594H400.324Z" fill="#282828"/>
<path d="M401.803 594V599.576H401.075V594H401.803Z" fill="#282828"/>
</g>
<g id="VI_3">
<path d="M45.3244 594L43.2204 599.576H42.3804L40.2764 594H41.0524L42.8044 598.808L44.5564 594H45.3244Z" fill="#282828"/>
<path d="M46.8026 594V599.576H46.0746V594H46.8026Z" fill="#282828"/>
</g>
<g id="VII_2">
<path d="M429.364 581L427.26 586.576H426.42L424.316 581H425.092L426.844 585.808L428.596 581H429.364Z" fill="#282828"/>
<path d="M430.842 581V586.576H430.114V581H430.842Z" fill="#282828"/>
<path d="M432.763 581V586.576H432.035V581H432.763Z" fill="#282828"/>
</g>
</g>
<g id="Y-axis">
<g id="Vector">
<path d="M22 577H29V578H22V577Z" fill="#858711"/>
<path d="M22 577H29V578H22V577Z" fill="#858711"/>
<path d="M22 548H29V549H22V548Z" fill="#858711"/>
<path d="M22 548H29V549H22V548Z" fill="#858711"/>
<path d="M22 492H29V493H22V492Z" fill="#858711"/>
<path d="M22 492H29V493H22V492Z" fill="#858711"/>
<path d="M22 436H29V437H22V436Z" fill="#858711"/>
<path d="M22 436H29V437H22V436Z" fill="#858711"/>
<path d="M22 380H29V381H22V380Z" fill="#858711"/>
<path d="M22 380H29V381H22V380Z" fill="#858711"/>
<path d="M22 324H29V325H22V324Z" fill="#858711"/>
<path d="M22 324H29V325H22V324Z" fill="#858711"/>
<path d="M22 268H29V269H22V268Z" fill="#858711"/>
<path d="M22 268H29V269H22V268Z" fill="#858711"/>
<path d="M22 212H29V213H22V212Z" fill="#858711"/>
<path d="M22 520H29V521H22V520Z" fill="#858711"/>
<path d="M22 520H29V521H22V520Z" fill="#858711"/>
<path d="M22 464H29V465H22V464Z" fill="#858711"/>
<path d="M22 408H29V409H22V408Z" fill="#858711"/>
<path d="M22 352H29V353H22V352Z" fill="#858711"/>
<path d="M22 352H29V353H22V352Z" fill="#858711"/>
<path d="M22 296H29V297H22V296Z" fill="#858711"/>
<path d="M22 296H29V297H22V296Z" fill="#858711"/>
<path d="M22 240H29V241H22V240Z" fill="#858711"/>
<path d="M22 184H29V185H22V184Z" fill="#858711"/>
<path d="M22 184H29V185H22V184Z" fill="#858711"/>
<path fill-rule="evenodd" clip-rule="evenodd" d="M26 184L26 578H25L25 184L26 184Z" fill="#858711"/>
</g>
</g>
</g>
<g id="boxes">
<g id="lg-box-ground-1-6">
<path id="top" d="M90 552L58 566L26 552L58 538L90 552Z" fill="#262626" stroke="#FDFF83"/>
<path id="right-side" d="M58 566L90 552L90 577L58 591L58 566Z" fill="#262626" stroke="#FDFF83"/>
<path id="right-side_2" d="M58 566L26 552L26 577L58 591L58 566Z" fill="#262626" stroke="#FDFF83"/>
</g>
<g id="lg-box-air-2-6">
<path id="top_2" d="M122 488L90 502L58 488L90 474L122 488Z" fill="#262626" stroke="#FDFF83"/>
<path id="right-side_3" d="M90 502L122 488L122 538L90 552L90 502Z" fill="#262626" stroke="#FDFF83"/>
<path id="right-side_4" d="M90 502L58 488L58 538L90 552L90 502Z" fill="#262626" stroke="#FDFF83"/>
</g>
<g id="xl-box-air-1-4">
<path id="top_3" d="M152.764 412L120.764 426L88.7637 412L120.764 398L152.764 412Z" fill="#262626" stroke="#FDFF83"/>
<path id="right-side_5" d="M120.764 426L152.764 412L152.764 487L120.764 501L120.764 426Z" fill="#262626" stroke="#FDFF83"/>
<path id="right-side_6" d="M120.764 426L88.7637 412L88.7637 487L120.764 501L120.764 426Z" fill="#262626" stroke="#FDFF83"/>
</g>
<g id="xl-box-air-6-4">
<path id="top_4" d="M280.764 282L248.764 296L216.764 282L248.764 268L280.764 282Z" fill="#262626" stroke="#FDFF83"/>
<path id="right-side_7" d="M248.764 296L280.764 282L280.764 357L248.764 371L248.764 296Z" fill="#262626" stroke="#FDFF83"/>
<path id="right-side_8" d="M248.764 296L216.764 282L216.764 357L248.764 371L248.764 296Z" fill="#262626" stroke="#FDFF83"/>
</g>
<g id="lg-box-air-3-5">
<path id="top_5" d="M184.764 324L152.764 338L120.764 324L152.764 310L184.764 324Z" fill="#262626" stroke="#FDFF83"/>
<path id="right-side_9" d="M152.764 338L184.764 324L184.764 374L152.764 388L152.764 338Z" fill="#262626" stroke="#FDFF83"/>
<path id="right-side_10" d="M152.764 338L120.764 324L120.764 374L152.764 388L152.764 338Z" fill="#262626" stroke="#FDFF83"/>
</g>
<g id="xl-box-air-2-2">
<path id="top_6" d="M248.764 359L216.764 373L184.764 359L216.764 345L248.764 359Z" fill="#262626" stroke="#FDFF83"/>
<path id="right-side_11" d="M216.764 373L248.764 359L248.764 434L216.764 448L216.764 373Z" fill="#262626" stroke="#FDFF83"/>
<path id="right-side_12" d="M216.764 373L184.764 359L184.764 434L216.764 448L216.764 373Z" fill="#262626" stroke="#FDFF83"/>
</g>
<g id="xxl-box-ground-6-1">
<path id="top_7" d="M408.764 477.576L376.764 491.576L344.764 477.576L376.764 463.576L408.764 477.576Z" fill="#262626" stroke="#FDFF83"/>
<path id="left-side" d="M376.764 491.576L344.764 477.576V577.576L376.764 591.576V491.576Z" fill="#262626" stroke="#FDFF83"/>
<path id="right-side_13" d="M376.764 491.576L408.764 477.576V577.576L376.764 591.576V491.576Z" fill="#262626" stroke="#FDFF83"/>
</g>
<g id="xl-box-ground-1-4">
<path id="top_8" d="M152.764 529.576L120.764 543.576L88.7637 529.576L120.764 515.576L152.764 529.576Z" fill="#262626" stroke="#FDFF83"/>
<path id="right-side_14" d="M120.764 543.576L152.764 529.576L152.764 604.576L120.764 618.576L120.764 543.576Z" fill="#262626" stroke="#FDFF83"/>
<path id="right-side_15" d="M120.764 543.576L88.7637 529.576L88.7637 604.576L120.764 618.576L120.764 543.576Z" fill="#262626" stroke="#FDFF83"/>
</g>
<g id="xl-box-air-6-3">
<path id="top_9" d="M312.764 342.576L280.764 356.576L248.764 342.576L280.764 328.576L312.764 342.576Z" fill="#262626" stroke="#FDFF83"/>
<path id="right-side_16" d="M280.764 356.576L312.764 342.576L312.764 417.576L280.764 431.576L280.764 356.576Z" fill="#262626" stroke="#FDFF83"/>
<path id="right-side_17" d="M280.764 356.576L248.764 342.576L248.764 417.576L280.764 431.576L280.764 356.576Z" fill="#262626" stroke="#FDFF83"/>
</g>
<g id="xxl-box-air-5-2">
<path id="top_10" d="M312.764 445.576L280.764 459.576L248.764 445.576L280.764 431.576L312.764 445.576Z" fill="#262626" stroke="#FDFF83"/>
<path id="left-side_2" d="M280.764 459.576L248.764 445.576V545.576L280.764 559.576V459.576Z" fill="#262626" stroke="#FDFF83"/>
<path id="right-side_18" d="M280.764 459.576L312.764 445.576V545.576L280.764 559.576V459.576Z" fill="#262626" stroke="#FDFF83"/>
</g>
<g id="lg-box-air-1-4">
<path id="top_11" d="M152.764 514.576L120.764 528.576L88.7637 514.576L120.764 500.576L152.764 514.576Z" fill="#262626" stroke="#FDFF83"/>
<path id="right-side_19" d="M120.764 528.576L152.764 514.576L152.764 529.576L120.764 543.576L120.764 528.576Z" fill="#262626" stroke="#FDFF83"/>
<path id="right-side_20" d="M120.764 528.576L88.7637 514.576L88.7636 529.576L120.764 543.576L120.764 528.576Z" fill="#262626" stroke="#FDFF83"/>
</g>
<g id="lg-box-air-2-4">
<path id="top_12" d="M184.764 374L152.764 388L120.764 374L152.764 360L184.764 374Z" fill="#262626" stroke="#FDFF83"/>
<path id="right-side_21" d="M152.764 388L184.764 374L184.764 399L152.764 413L152.764 388Z" fill="#262626" stroke="#FDFF83"/>
<path id="right-side_22" d="M152.764 388L120.764 374L120.764 399L152.764 413L152.764 388Z" fill="#262626" stroke="#FDFF83"/>
</g>
<g id="lg-box-air-3-2">
<path id="top_13" d="M280.764 490.576L248.764 504.576L216.764 490.576L248.764 476.576L280.764 490.576Z" fill="#262626" stroke="#FDFF83"/>
<path id="right-side_23" d="M248.764 504.576L280.764 490.576L280.764 540.576L248.764 554.576L248.764 504.576Z" fill="#262626" stroke="#FDFF83"/>
<path id="right-side_24" d="M248.764 504.576L216.764 490.576L216.764 540.576L248.764 554.576L248.764 504.576Z" fill="#262626" stroke="#FDFF83"/>
</g>
<g id="lg-box-ground-5-1">
<path id="top_14" d="M376.764 576.576L344.764 590.576L312.764 576.576L344.764 562.576L376.764 576.576Z" fill="#262626" stroke="#FDFF83"/>
<path id="right-side_25" d="M344.764 590.576L376.764 576.576L376.764 591.576L344.764 605.576L344.764 590.576Z" fill="#262626" stroke="#FDFF83"/>
<path id="right-side_26" d="M344.764 590.576L312.764 576.576L312.764 591.576L344.764 605.576L344.764 590.576Z" fill="#262626" stroke="#FDFF83"/>
</g>
<g id="xl-box-ground-4-1">
<path id="top_15" d="M344.764 530.576L312.764 544.576L280.764 530.576L312.764 516.576L344.764 530.576Z" fill="#262626" stroke="#FDFF83"/>
<path id="right-side_27" d="M312.764 544.576L344.764 530.576L344.764 605.576L312.764 619.576L312.764 544.576Z" fill="#262626" stroke="#FDFF83"/>
<path id="right-side_28" d="M312.764 544.576L280.764 530.576L280.764 605.576L312.764 619.576L312.764 544.576Z" fill="#262626" stroke="#FDFF83"/>
</g>
<g id="xxl-box-ground-1-3">
<path id="top_16" d="M184.764 519.576L152.764 533.576L120.764 519.576L152.764 505.576L184.764 519.576Z" fill="#262626" stroke="#FDFF83"/>
<path id="left-side_3" d="M152.764 533.576L120.764 519.576V619.576L152.764 633.576V533.576Z" fill="#262626" stroke="#FDFF83"/>
<path id="right-side_29" d="M152.764 533.576L184.764 519.576V619.576L152.764 633.576V533.576Z" fill="#262626" stroke="#FDFF83"/>
</g>
<g id="lg-box">
<path id="top_17" d="M216.764 608.576L184.764 622.576L152.764 608.576L184.764 594.576L216.764 608.576Z" fill="#262626" stroke="#FDFF83"/>
<path id="right-side_30" d="M184.764 622.576L216.764 608.576L216.764 633.576L184.764 647.576L184.764 622.576Z" fill="#262626" stroke="#FDFF83"/>
<path id="right-side_31" d="M184.764 622.576L152.764 608.576L152.764 633.576L184.764 647.576L184.764 622.576Z" fill="#262626" stroke="#FDFF83"/>
</g>
<g id="lg-box-air-1-2">
<path id="top_18" d="M216.764 508L184.764 522L152.764 508L184.764 494L216.764 508Z" fill="#262626" stroke="#FDFF83"/>
<path id="right-side_32" d="M184.764 522L216.764 508L216.764 558L184.764 572L184.764 522Z" fill="#262626" stroke="#FDFF83"/>
<path id="right-side_33" d="M184.764 522L152.764 508L152.764 558L184.764 572L184.764 522Z" fill="#262626" stroke="#FDFF83"/>
</g>
<g id="xxl-box-air-1-2">
<path id="top_19" d="M216.764 397.424L184.764 411.424L152.764 397.424L184.764 383.424L216.764 397.424Z" fill="#262626" stroke="#FDFF83"/>
<path id="left-side_4" d="M184.764 411.424L152.764 397.424V497.424L184.764 511.424V411.424Z" fill="#262626" stroke="#FDFF83"/>
<path id="right-side_34" d="M184.764 411.424L216.764 397.424V497.424L184.764 511.424V411.424Z" fill="#262626" stroke="#FDFF83"/>
</g>
<g id="lg-box-air-6-2">
<path id="top_20" d="M344.764 421.576L312.764 435.576L280.764 421.576L312.764 407.576L344.764 421.576Z" fill="#262626" stroke="#FDFF83"/>
<path id="right-side_35" d="M312.764 435.576L344.764 421.576L344.764 446.576L312.764 460.576L312.764 435.576Z" fill="#262626" stroke="#FDFF83"/>
<path id="right-side_36" d="M312.764 435.576L280.764 421.576L280.764 446.576L312.764 460.576L312.764 435.576Z" fill="#262626" stroke="#FDFF83"/>
</g>
</g>
</g>
</svg>
