<svg width="25" height="12" viewBox="0 0 25 12" fill="none" xmlns="http://www.w3.org/2000/svg">
<path d="M0.00326672 1.97803L0.00326682 4.21979L24.9723 4.21979L24.9723 1.97803C24.9723 1.31869 22.8393 0.85715 21.71 0.659347C20.5807 0.461545 19.8279 0.395611 18.5732 0.263743C17.5694 0.158249 14.809 0.0439633 13.5543 7.03692e-06L12.2996 7.09176e-06L11.2958 7.13564e-06L8.0335 0.131876C6.73695 0.219788 3.71725 0.501106 2.01083 0.923084C0.3044 1.34506 -0.0385574 1.80221 0.00326672 1.97803Z" fill="url(#paint0_linear_12_27)"/>
<path d="M2.01082 11.0769C0.354583 10.7077 -0.0176525 10.2198 0.00325953 10.022L0.00325274 1.97802C0.00325276 2.45275 1.34163 2.87912 2.01081 3.03297C2.78794 3.21163 2.5509 3.20825 4.01837 3.42857C5.77499 3.69231 7.40613 3.75824 8.03349 3.82418C8.53538 3.87692 10.6684 3.93407 11.6722 3.95604L13.9307 3.95604C14.6208 3.93407 16.2143 3.87692 17.0675 3.82418C18.134 3.75824 19.1378 3.62637 19.8279 3.56044C20.38 3.50769 21.3127 3.36264 21.71 3.2967C22.2955 3.18681 23.6172 2.9011 24.2194 2.63736C24.8217 2.37362 24.9723 2.08791 24.9723 1.97802C24.9932 4.52747 25.0225 9.70549 24.9723 10.022C24.9095 10.4176 24.3449 10.6154 23.843 10.8132C23.4415 10.9714 22.6719 11.1429 22.3374 11.2088L21.71 11.3407L19.8279 11.6044C19.2005 11.6703 17.7451 11.8154 16.942 11.8681C15.9383 11.9341 12.425 12 11.4212 12C10.6182 12 7.65707 11.8242 6.27688 11.7363C5.54496 11.6703 3.66706 11.4462 2.01082 11.0769Z" fill="url(#paint1_linear_12_27)"/>
<defs>
<linearGradient id="paint0_linear_12_27" x1="-9.22262e-08" y1="2.1099" x2="24.9723" y2="2.1099" gradientUnits="userSpaceOnUse">
<stop stop-color="#171717"/>
<stop offset="0.119792" stop-color="#3A3A3A"/>
<stop offset="0.286458" stop-color="#525252"/>
<stop offset="1" stop-color="white"/>
</linearGradient>
<linearGradient id="paint1_linear_12_27" x1="0.00244119" y1="6.97492" x2="25" y2="6.97492" gradientUnits="userSpaceOnUse">
<stop stop-color="#505050"/>
<stop offset="0.260417" stop-color="#414141"/>
<stop offset="0.770833" stop-color="#242424"/>
<stop offset="1" stop-color="#0A0A0A"/>
</linearGradient>
</defs>
</svg>
