<svg id="front-ring-one" width="35" height="17" viewBox="0 0 35 17" fill="none" xmlns="http://www.w3.org/2000/svg">
<g id="i-ring-front-lg">
<path id="front" d="M2.81515 15.6923C0.496416 15.1692 -0.0247136 14.478 0.00456335 14.1978L0.00455384 2.80219C0.00455387 3.47472 1.87828 4.07875 2.81514 4.2967C3.90312 4.5498 3.57125 4.54501 5.62572 4.85714C8.08499 5.23076 10.3686 5.32417 11.2469 5.41758C11.9495 5.4923 14.9358 5.57325 16.3411 5.60439L19.503 5.60439C20.4691 5.57325 22.7 5.4923 23.8945 5.41758C25.3876 5.32417 26.7929 5.13736 27.7591 5.04395C28.532 4.96922 29.8377 4.76373 30.394 4.67032C31.2138 4.51464 33.0641 4.10988 33.9072 3.73626C34.7504 3.36263 34.9612 2.95787 34.9612 2.80219C34.9905 6.41391 35.0315 13.7494 34.9612 14.1978C34.8734 14.7582 34.0829 15.0385 33.3802 15.3187C32.8181 15.5429 31.7407 15.7857 31.2723 15.8791L30.394 16.0659L27.7591 16.4396C26.8808 16.533 24.8431 16.7385 23.7189 16.8132C22.3136 16.9066 17.395 17 15.9898 17C14.8655 17 10.7199 16.7509 8.78763 16.6264C7.76294 16.533 5.13388 16.2154 2.81515 15.6923Z" fill="url(#paint0_linear_16_50)"/>
</g>
<defs>
<linearGradient id="paint0_linear_16_50" x1="0.00341766" y1="9.88113" x2="35" y2="9.88113" gradientUnits="userSpaceOnUse">
<stop stop-color="#505050"/>
<stop offset="0.260417" stop-color="#414141"/>
<stop offset="0.770833" stop-color="#242424"/>
<stop offset="1" stop-color="#0A0A0A"/>
</linearGradient>
</defs>
</svg>
