<svg width="1004" height="345" viewBox="0 0 1004 345" fill="none" xmlns="http://www.w3.org/2000/svg">
<g id="ioten-logo">
<path id="0-back" d="M848.527 342.783C850.245 343.102 855.658 343.713 858.15 343.978H866.421C875.037 344.244 897.23 342.177 917.08 331.784C936.931 321.392 948.627 310.452 951.993 306.281C957.613 300.25 970.317 285.479 976.17 274.64C982.023 263.801 984.6 258.647 985.157 257.425L988.895 248.738L994.939 231.523C995.734 228.734 997.42 222.709 997.802 220.923C998.183 219.138 999.392 213.166 999.949 210.403C1000.51 207.534 1001.68 200.743 1001.94 196.535C1002.36 193.549 1003.16 185.073 1002.97 175.062C1002.73 162.55 1002.69 156.527 1001.86 149.115C1001.99 149.354 1001.83 146.931 1000.11 135.327C997.722 120.662 996.688 119.626 992.712 106.635C989.531 96.2424 983.699 84.346 981.18 79.6969C979.139 75.6588 973.784 65.7815 968.694 58.5767C962.332 49.5707 957.083 44.1512 951.993 38.7317C941.496 27.8926 933.225 22.0746 922.966 16.4957C912.706 10.9168 904.276 6.93182 890.518 3.74386C879.511 1.1935 868.966 0.874702 865.069 1.0341L858.548 1.1935L855.207 1.51229L849.481 2.30928C846.459 2.70778 841.131 3.90326 837.711 4.85965C834.292 5.81603 824.987 8.207 816.08 12.9889C818.624 14.1313 825.734 17.9781 833.814 24.2265C843.914 32.037 853.299 40.0865 862.922 52.3602C872.545 64.6338 878.668 76.9871 882.724 84.4788C886.78 91.9705 891.95 105.599 894.176 114.286C896.403 122.973 897.755 130.146 899.505 141.703C900.904 150.948 901.519 167.286 901.652 174.299C901.679 175.521 901.604 180.404 901.095 190.16C900.586 199.915 898.656 210.802 897.755 215.026C896.933 218.957 894.701 228.606 892.347 235.747C889.405 244.674 888.609 246.188 885.905 253.281C883.201 260.374 875.487 274.242 873.022 278.067C871.05 281.128 863.717 291.138 860.297 295.761C857.858 298.842 851.645 306.153 846.3 310.744C839.62 316.482 838.029 317.757 830.554 323.018C824.573 327.226 820.321 329.659 818.943 330.35L816 331.864C819.658 333.617 828.963 337.682 835.166 339.435C841.37 341.189 846.38 342.384 848.527 342.783Z" stroke="black"></path>
<path id="10-front" d="M633.471 219.287L632.356 214.827L632.255 214.27V214.589L631.936 223.189L631.777 227.49L631.459 233.702L631.3 236.569L630.663 244.214L629.866 253.452L629.548 257.115L628.911 263.964L628.115 272.087C627.903 273.839 627.414 277.757 627.159 279.414C626.841 281.484 625.726 290.006 625.408 292.793C625.089 295.58 624.373 299.642 623.179 305.853C621.984 312.065 621.507 313.977 620.153 319.87C618.8 325.763 615.615 333.647 614.739 335.638C613.863 337.629 612.749 339.54 611.873 340.576C610.997 341.611 610.201 342.407 609.166 342.965C608.338 343.411 607.228 343.575 606.777 343.602H502.318C502.764 343.602 503.247 343.496 503.433 343.443C503.645 343.389 504.229 343.156 504.866 342.646C505.503 342.136 506.512 341.053 506.936 340.576C507.786 339.673 509.962 336.562 511.873 331.338C513.783 326.113 515.641 318.542 516.331 315.41L517.605 309.676L519.834 298.368L521.268 288.492C521.586 286.39 522.356 280.184 522.701 277.343L523.497 269.379C523.63 268.052 523.975 264.697 524.293 261.893C524.611 259.09 524.957 255.522 525.089 254.089L525.885 245.01L526.204 241.347C526.31 239.701 526.554 235.804 526.682 233.383C526.841 230.357 526.92 228.923 527.159 224.065C527.398 219.208 527.478 216.42 527.637 212.518C527.764 209.396 527.902 204.952 527.955 203.121C528.009 201.608 528.147 197.642 528.274 193.883C528.401 190.124 528.327 185.415 528.274 183.53V174.451V172.221L527.796 139.888L527.478 129.535L527.159 120.775L526.841 114.563L526.522 110.263L526.045 104.051L525.726 99.273L525.248 92.7427L524.771 86.531L524.134 79.3636L523.656 74.426L523.019 68.3736L522.382 63.1175L521.586 57.065L520.949 52.6053L520.153 47.1899L519.834 45.1193L519.038 40.6596L518.561 38.2705L517.764 34.7664L516.252 28.3158C515.869 26.6593 515.164 23.9888 514.898 22.98C514.288 20.9891 512.924 16.5772 512.35 14.857C511.777 13.1368 510.838 10.9547 510.44 10.0787C509.829 8.8045 508.433 6.00125 507.732 4.98189C506.857 3.70768 506.379 3.15022 505.662 2.43348C504.946 1.71674 504.15 1.23891 503.752 1.15928C503.433 1.09557 502.451 1.02655 502 1H607.733C608.768 1 609.086 1.23891 610.121 2.11493C611.094 2.93799 612.032 4.02624 612.35 4.50406C612.483 4.66334 612.956 5.3323 613.784 6.73392C614.612 8.13555 615.296 9.54779 615.535 10.0787C615.774 10.6096 616.395 12.0537 616.968 13.5828C617.542 15.1118 618.693 18.7858 619.198 20.4316L620.79 26.8026L622.542 35.2443L624.134 43.8451C624.293 44.6681 624.803 47.604 625.567 52.7646C626.331 57.9251 627.266 64.6837 627.637 67.4179L629.229 80.7971L630.344 95.1319L631.459 114.245L632.436 130.173L633.949 123.085C634.559 120.43 636.082 114.102 637.293 110.024C638.503 105.947 640.769 100.149 641.751 97.7599C642.919 94.893 645.891 87.9008 648.439 82.8677C651.624 76.5763 655.684 69.17 659.586 63.0378C662.707 58.1322 666.937 52.6584 668.662 50.5347L672.165 46.4732L678.376 40.1022L689.363 29.9085L694.14 26.0859C696.714 24.2011 702.229 20.1927 703.694 19.2371C705.525 18.0425 711.576 14.4588 714.363 13.0253C717.149 11.5918 720.175 10.0787 726.783 7.84885C733.392 5.61899 734.347 5.45972 739.681 4.10587C745.016 2.75203 749.076 2.35384 753.535 1.71674C757.102 1.20706 759.639 1.07964 760.462 1.07964H848.519H865L858.471 1.23891L855.127 1.55746L849.395 2.35384C846.369 2.75203 841.035 3.9466 837.611 4.90225C834.188 5.85791 823.28 9.04342 814.363 13.8217C805.446 18.6 800.589 21.4669 793.025 27.6787C786.974 32.6481 781.693 37.9254 779.809 39.9429L768.662 52.5257C766.38 55.7112 761.242 62.9423 758.949 66.3826C756.656 69.823 753.747 75.249 752.579 77.5319L746.528 89.4776L743.344 96.9635L740.955 103.653L739.044 109.546L736.337 119.581L735.064 124.996L733.63 132.163L732.197 140.605L731.083 149.206C730.87 151.462 730.414 156.405 730.286 158.125C730.159 159.846 729.915 164.788 729.809 167.045L729.649 173.416V174.849L730.127 183.928L730.923 193.644L731.242 196.67C731.534 199.112 732.134 204.092 732.197 204.475C732.261 204.857 733.285 210.899 733.79 213.872L734.904 219.287L736.178 224.703L738.089 231.551L741.114 240.63L742.707 244.931L744.777 250.187L746.688 254.806C747.617 256.982 749.522 261.432 749.713 261.814C749.904 262.196 752.553 267.388 753.853 269.937L757.197 275.671L761.178 281.883L767.548 290.643L772.962 297.332L779.172 304.181L786.974 311.826C788.753 313.366 792.42 316.541 792.866 316.923C793.312 317.305 797.192 320.268 799.076 321.701C801.359 323.241 806.306 326.543 807.834 327.435C809.745 328.55 815.796 331.736 819.459 333.329C823.121 334.921 828.853 337.47 835.064 339.222C841.274 340.974 846.29 342.168 848.439 342.566C850.159 342.885 855.579 343.496 858.073 343.761L840.796 343.841L815.637 344C803.986 343.973 779.427 343.904 774.395 343.841C768.105 343.761 766.274 343.602 758.63 343.204C752.516 342.885 744.618 341.478 741.433 340.814C729.729 338.505 722.404 335.877 713.567 331.099C704.729 326.32 697.245 321.224 691.274 316.605C685.302 311.986 679.331 306.252 676.783 303.544C674.745 301.378 671.581 297.545 670.254 295.899L665.318 289.528L660.382 282.679L656.56 276.786L653.216 270.733L647.802 260.54L645.095 255.283L642.866 250.027L641.433 246.205L639.044 239.197L637.133 232.985L635.541 227.251L633.471 219.287Z" stroke="black"></path>
<path id="o1-back" d="M332.274 343.978C329.775 343.713 324.345 343.102 322.623 342.783C320.469 342.384 315.444 341.189 309.223 339.435C303.001 337.682 293.669 333.617 290 331.864L292.951 330.35C294.334 329.659 298.598 327.226 304.596 323.018C312.094 317.757 313.689 316.482 320.389 310.744C325.749 306.153 331.981 298.842 334.427 295.761C337.857 291.138 345.211 281.128 347.189 278.067C349.662 274.242 357.399 260.374 360.111 253.281C362.823 246.188 363.62 244.674 366.571 235.747C368.932 228.606 371.171 218.957 371.995 215.026C372.899 210.802 374.835 199.915 375.345 190.16C375.856 180.404 375.93 175.521 375.903 174.299C375.771 167.286 375.154 150.948 373.75 141.703C371.995 130.146 370.639 122.973 368.406 114.286C366.173 105.599 360.988 91.9705 356.92 84.4788C352.852 76.9871 346.711 64.6338 337.059 52.3602C327.408 40.0865 317.996 32.037 307.867 24.2265C299.763 17.9781 292.632 14.1313 290.08 12.9889C299.013 8.207 308.345 5.81603 311.775 4.85965C315.205 3.90326 320.549 2.70778 323.58 2.30928L329.323 1.51229L332.673 1.1935L339.213 1.0341C343.121 0.874702 353.698 1.1935 364.737 3.74386C378.536 6.93182 386.99 10.9168 397.28 16.4957C407.569 22.0746 415.864 27.8926 426.393 38.7317C431.497 44.1512 436.762 49.5707 443.143 58.5767C448.247 65.7815 453.618 75.6588 455.665 79.6969C458.191 84.346 464.04 96.2424 467.231 106.635C471.219 119.626 472.256 120.662 474.649 135.327C476.371 146.931 476.536 149.354 476.403 149.115L477.919 111.417C478.61 102.57 480.328 82.1038 481.668 71.0097C483.343 57.1421 484.938 45.8249 487.012 34.8264C489.086 23.828 495.307 1.0341 501.608 1.0341C502.06 1.06067 503.044 1.12974 503.363 1.1935C503.762 1.2732 504.559 1.75139 505.277 2.46868C505.995 3.18597 506.474 3.74386 507.351 5.01904C508.053 6.03919 509.451 8.84459 510.063 10.1198C510.462 10.9965 511.403 13.1802 511.977 14.9017C512.551 16.6232 513.918 21.0385 514.53 23.031C514.795 24.0405 515.503 26.7131 515.885 28.3708L517.401 34.8264L518.199 38.3332L518.677 40.7241L519.475 45.1873L519.794 47.2594L520.591 52.679L521.23 57.1421L522.027 63.1992L522.665 68.4593L523.303 74.5165L523.782 79.4578L524.42 86.6307L524.899 92.8472L525.377 99.3825L525.696 104.164L526.175 110.381L526.494 114.685L526.813 120.901L527.132 129.668L527.451 140.029L527.93 172.387V174.618V183.704C527.983 185.59 528.057 190.303 527.93 194.065C527.802 197.827 527.664 201.796 527.61 203.31C527.557 205.143 527.419 209.59 527.291 212.714C527.132 216.62 527.052 219.409 526.813 224.271C526.574 229.132 526.494 230.567 526.334 233.595C526.207 236.018 525.962 239.918 525.856 241.565L525.537 245.231L524.739 254.317C524.606 255.752 524.26 259.322 523.941 262.128C523.622 264.933 523.277 268.291 523.144 269.619L522.346 277.589C522.001 280.432 521.23 286.643 520.91 288.747L519.475 298.63L517.241 309.947L515.965 315.685C515.274 318.82 513.413 326.397 511.499 331.625C509.584 336.853 507.404 339.967 506.553 340.87C506.128 341.348 505.118 342.432 504.48 342.942C503.841 343.452 503.257 343.686 503.044 343.739C502.858 343.792 502.374 343.899 501.927 343.899C497.301 343.899 493.153 334.016 490.681 325.568C488.208 317.12 487.012 311.621 484.699 297.833C482.386 284.045 482.306 281.734 480.631 264.837C479.291 251.32 478.637 240.875 478.477 237.341L477.121 208.012L476.483 196.535C476.228 200.744 475.047 207.534 474.489 210.403C473.931 213.166 472.718 219.138 472.336 220.923C471.953 222.709 470.262 228.734 469.464 231.523L463.402 248.738L459.653 257.425C459.095 258.647 456.511 263.801 450.64 274.64C444.77 285.479 432.029 300.25 426.393 306.281C423.016 310.452 411.286 321.392 391.377 331.784C371.469 342.177 349.21 344.244 340.569 343.978H332.274Z" stroke="black"></path>
<g id="i-back">
<path d="M131.068 343.841L131.945 344C143.023 343.601 148.044 304.136 149 301.027C146.96 298.858 146.264 297.811 144.935 296.163L139.994 289.785L135.053 282.928L131.228 277.029L127.88 270.969L122.461 260.764L119.751 255.502L117.52 250.24L116.085 246.413L113.694 239.397L111.782 233.178L110.188 227.438L108.116 219.465L107 215L107.159 220.9L107.319 225.365L107.638 231.743L108.116 239.557L108.753 247.689L109.55 256.14L110.825 268.418C111.277 272.511 112.26 281.398 112.579 284.204C112.977 287.712 114.332 296.642 114.491 297.598C114.651 298.555 116.564 308.601 117.839 314.341C118.859 318.934 120.283 324.227 120.867 326.3L120.887 326.369C121.285 327.721 121.845 329.627 123.099 332.998C124.403 336.506 126.127 339.216 127.402 340.811C128.677 342.405 129.554 342.964 130.112 343.362C130.558 343.681 130.935 343.814 131.068 343.841Z" stroke="black"></path>
<path d="M146.848 46.4557L148.92 44.303C148.416 41.6454 147.199 35.2938 146.37 31.1479C145.334 25.9656 143.74 19.1887 139.835 9.86057C136.711 2.39805 133.433 0.851325 132.184 1.01078C131.355 1.01078 130.67 1.22339 130.431 1.32969C130.324 1.38284 130.016 1.55293 129.634 1.80806C129.156 2.12697 128.12 3.00398 126.765 4.99717C125.41 6.99037 123.577 10.8173 122.62 13.4483C121.664 16.0793 121.186 17.6739 120.548 19.6671C120.038 21.2617 119.167 24.4773 118.795 25.8859C118.317 28.0119 117.201 32.9019 116.564 35.4532C115.926 38.0045 115.342 41.0873 115.129 42.3098L114.81 44.3827L112.898 56.9797L112.26 61.7634L111.304 69.8956L110.507 77.709L109.55 88.3925L109.231 92.8573L108.435 103.7L107.797 112.151L107.319 119.965L107.159 125.227L107.08 130.25L108.594 123.154C109.205 120.496 110.73 114.161 111.941 110.078C113.153 105.996 115.421 100.192 116.404 97.8004C117.573 94.9302 120.548 87.9301 123.099 82.8913C126.287 76.5928 130.351 69.1781 134.256 63.039C137.38 58.1278 141.615 52.6479 143.342 50.5218L146.848 46.4557Z" stroke="black"></path>
</g>
<g id="io-front">
<path id="Vector 471" d="M26.4694 1H131.76C130.933 1 130.249 1.21242 130.01 1.31863C129.904 1.37173 129.597 1.54166 129.215 1.79656C128.738 2.11519 127.704 2.99141 126.352 4.98281C125 6.97422 123.171 10.7977 122.217 13.4264C121.262 16.055 120.785 17.6482 120.149 19.6396C119.64 21.2327 118.771 24.4455 118.4 25.8528C117.922 27.9769 116.809 32.8625 116.173 35.4115C115.537 37.9605 114.954 41.0406 114.741 42.262L114.423 44.333L112.515 56.9187L111.879 61.6981L110.924 69.823L110.129 77.6294L109.175 88.3033L108.857 92.7641L108.061 103.597L107.425 112.041L106.948 119.847L106.789 125.105L106.71 130.123L108.22 123.033C108.83 120.378 110.352 114.048 111.561 109.97C112.769 105.891 115.033 100.092 116.014 97.7027C117.18 94.8351 120.149 87.8413 122.694 82.807C125.875 76.5142 129.931 69.1061 133.827 62.9726C136.945 58.0658 141.17 52.5907 142.893 50.4666L146.392 46.4041L152.595 40.0316L163.569 29.8356L168.341 26.0121C170.912 24.1269 176.421 20.1175 177.884 19.1616C179.713 17.9668 185.757 14.3823 188.54 12.9484C191.323 11.5146 194.345 10.0012 200.946 7.77079C207.546 5.54041 208.501 5.3811 213.829 4.02694C219.157 2.67278 223.213 2.2745 227.666 1.63725C231.229 1.12745 233.763 1 234.585 1H322.538H339L332.479 1.15931L329.139 1.47794L323.413 2.2745C320.391 2.67278 315.063 3.86763 311.644 4.8235C308.224 5.77938 297.329 8.96563 288.423 13.745C279.516 18.5244 274.665 21.392 267.11 27.6052C261.066 32.5758 255.791 37.8543 253.909 39.8723L242.776 52.458C240.496 55.6442 235.364 62.877 233.074 66.3182C230.783 69.7593 227.878 75.1866 226.712 77.47L220.668 89.4185L217.487 96.9062L215.101 103.597L213.193 109.492L210.489 119.529L209.216 124.945L207.785 132.114L206.353 140.558L205.24 149.161C205.028 151.418 204.572 156.362 204.445 158.082C204.318 159.803 204.074 164.747 203.968 167.004L203.809 173.376V174.81L204.286 183.891L205.081 193.609L205.399 196.636C205.691 199.079 206.29 204.06 206.353 204.442C206.417 204.825 207.44 210.868 207.944 213.842L209.057 219.258L210.33 224.675L212.238 231.525L215.26 240.606L216.851 244.908L218.918 250.165L220.827 254.785C221.755 256.962 223.658 261.412 223.849 261.795C224.04 262.177 226.685 267.371 227.984 269.92L231.324 275.655L235.3 281.868L241.662 290.63L247.07 297.321L253.273 304.172L261.066 311.819C262.842 313.359 266.506 316.535 266.951 316.917C267.396 317.299 271.272 320.262 273.154 321.696C275.434 323.236 280.375 326.539 281.902 327.431C283.81 328.547 289.854 331.733 293.512 333.326C297.17 334.919 302.896 337.468 309.099 339.221C315.302 340.973 320.312 342.168 322.459 342.566C324.177 342.885 329.59 343.496 332.081 343.761L314.825 343.841L289.695 344C278.058 343.973 253.527 343.904 248.501 343.841C242.219 343.761 240.39 343.602 232.756 343.203C226.648 342.885 218.759 341.478 215.578 340.814C203.888 338.504 196.572 335.875 187.745 331.096C178.918 326.316 171.442 321.218 165.478 316.598C159.514 311.978 153.549 306.243 151.005 303.535C148.969 301.368 145.809 297.534 144.484 295.888L139.553 289.515L134.623 282.665L130.805 276.77L127.465 270.716L122.058 260.52L119.354 255.263L117.127 250.006L115.696 246.182L113.31 239.172L111.401 232.959L109.811 227.224L107.743 219.258L106.63 214.798L106.789 220.692L106.948 225.153L107.266 231.525L107.743 239.332L108.38 247.457L109.175 255.9L110.447 268.167C110.898 272.256 111.879 281.135 112.197 283.939C112.594 287.444 113.946 296.366 114.105 297.321C114.264 298.277 116.173 308.314 117.445 314.049C118.463 318.637 119.884 323.927 120.467 325.998L120.487 326.066C120.884 327.417 121.443 329.321 122.694 332.689C123.996 336.194 125.716 338.902 126.988 340.495C128.261 342.088 129.135 342.646 129.692 343.044C130.137 343.363 130.514 343.496 130.646 343.522L131.521 343.681L31.5591 343.841C30.7903 343.841 28.8552 343.809 27.2648 343.681C25.2767 343.522 23.6862 342.487 22.3343 340.654C20.9823 338.822 20.3461 337.787 19.1533 335.078C18.199 332.912 17.2712 330.352 16.9266 329.343C15.2566 324.644 14.6999 322.493 13.5866 318.032C12.6959 314.463 11.731 309.642 11.3599 307.677L9.76942 299.711L8.33798 289.356L6.27035 273.743L4.83891 259.246L4.04367 250.324C3.88462 248.705 3.47109 244.111 3.08938 238.694C2.70766 233.278 2.5062 229.215 2.45318 227.861L2.13508 219.258L1.81699 207.549C1.73746 203.672 1.56251 195.329 1.49889 192.972C1.41937 190.024 1.26025 177.598 1.18072 174.412C1.1012 171.226 0.942149 160.313 1.02167 156.011C1.08529 152.57 1.36628 145.231 1.49882 141.992L2.29406 125.582L3.7255 99.9331C3.88455 96.7469 4.29807 89.1954 4.67979 84.4798C5.15694 78.5852 5.87266 73.6465 6.11123 71.4162C6.3498 69.1858 7.86076 58.5118 8.33791 55.007C8.81505 51.5021 10.326 42.5009 11.3598 37.0046C12.3936 31.5084 14.0637 24.0207 14.8589 21.0734C15.6541 18.1261 17.0856 13.5857 18.358 10.8774C19.6304 8.16907 20.3461 6.41663 22.4932 3.70831C24.211 1.54166 25.8598 1 26.4694 1Z" stroke="black"></path>
</g>
</g>
</svg>
