<svg width="86" height="30" fill="none" xmlns="http://www.w3.org/2000/svg"><path d="m72.7 29.3.8.1h.7c.7 0 2.6-.1 4.3-1 1.8-1 2.8-1.9 3-2.2a16.5 16.5 0 0 0 2.9-4.2l.3-.8.5-1.4a25 25 0 0 0 .6-3l.1-1.9v-2.2l-.2-1.2c-.2-1.2-.3-1.3-.7-2.4a14.6 14.6 0 0 0-2-4.2l-1.5-1.7A10 10 0 0 0 74 0h-.8l-.4.1a9 9 0 0 0-1 .2l-2 .7a13.2 13.2 0 0 1 4 3.4c1 1 1.5 2.1 1.8 2.8A13.7 13.7 0 0 1 77 12a27.2 27.2 0 0 1 .2 4.1 15.6 15.6 0 0 1-.8 4l-.5 1.4a17.1 17.1 0 0 1-2.2 3.7 10.9 10.9 0 0 1-3.6 3H70a12.9 12.9 0 0 0 2.8 1Z" fill="url(#a)"/><path d="M28.4 29.4a18.1 18.1 0 0 1-2-.4 13 13 0 0 1-1.6-.6l.2-.2a13.2 13.2 0 0 0 3.6-3 51.4 51.4 0 0 0 2.2-3.6l.5-1.5a19.2 19.2 0 0 0 .8-5.2 27.1 27.1 0 0 0-.6-5.2c-.2-.7-.6-1.9-1-2.5A13.3 13.3 0 0 0 24.8 1c.8-.5 1.6-.7 1.8-.8a9 9 0 0 1 1-.2h.8L29 0a9.3 9.3 0 0 1 5 1.3c.9.5 1.6 1 2.5 2l1.4 1.6a16.7 16.7 0 0 1 2 4.2c.4 1 .5 1.2.7 2.4l.2 1.2V9.5a107.3 107.3 0 0 1 .9-6.6c.2-1 .7-2.9 1.2-2.9H47v29.3h-4v.1c-.4 0-.8-.8-1-1.6l-.5-2.3-.4-2.9-.2-2.3v-2.5l-.1-1a11.4 11.4 0 0 1-.4 2l-.2 1-.6 1.4-.3.8-.7 1.5c-.5.9-1.6 2.2-2.1 2.7a10.5 10.5 0 0 1-7.4 3.2h-.7Z" fill="url(#b)"/><path d="M10.7 29.4c1 0 1.4-3.4 1.5-3.7v-7.4H7v11h3.6v.1Z" fill="url(#c)"/><path d="M11.4.8c-.3-.7-.5-.8-.7-.8H7v11h5.2V3.8a150.4 150.4 0 0 0-.8-3Z" fill="url(#d)"/><path d="M2.2 0h9-.2l-.3.3a4 4 0 0 0-.3.8l-.2.5a14.5 14.5 0 0 0-.4 2v.1l-.2 1v.5l-.2.7v.7l-.1.9v.4l-.1.9v.7l-.1.7v.9-.6a22.6 22.6 0 0 1 .8-2.2 20.3 20.3 0 0 1 2.3-4l.3-.4.5-.6 1-.8.3-.4a36 36 0 0 1 1.8-1l1-.5 1.1-.3c.5-.2.9-.2 1.2-.2L20 0h9H28l-.5.1a10.7 10.7 0 0 0-6 3.2l-.9 1.1a59.5 59.5 0 0 0-1.3 2.2l-.6 1-.2.6-.2.6-.2.5-.2.9-.1.4-.2.6v.8l-.2.7a61.6 61.6 0 0 0-.1 1.5v1.5l.1.8v.3l.1.6.1.9.1.4.1.5.2.6.3.7.1.4.2.5.1.4a46.3 46.3 0 0 0 .7 1.3l.2.5.4.5.5.7.5.6.5.6.7.7a412.2 412.2 0 0 0 1.8 1.3l1 .5 1.3.5a15.6 15.6 0 0 0 2 .4h-8.5a11.4 11.4 0 0 1-3.9-1.1 14 14 0 0 1-3.1-2.4l-.6-.6-.4-.6-.4-.5-.4-.6-.3-.5-.4-.8-.3-.5-.1-.4-.2-.4-.2-.6-.1-.5-.2-.5-.1-.7-.1-.4v2.1l.1.7v.8l.2 1a725 725 0 0 0 .6 4l.2 1 .2.5.4.7.2.2h.1l-8.5.1h-.3c-.2 0-.4-.1-.5-.3a2 2 0 0 1-.2-.5 7 7 0 0 1-.5-1.4l-.2-.9-.1-.7-.2-.9-.1-1.3L.3 22v-.7a41.2 41.2 0 0 1-.2-2V15A57.3 57.3 0 0 1 0 12v-1.4l.1-2.2.1-1.3L.4 6l.2-1.4A43.1 43.1 0 0 1 1.5.8l.3-.6.4-.2Z" fill="url(#e)"/><path d="M54.2 18.7v-.4l-.1.8V20.2l-.1.7v.7l-.1.4v.5l-.1.7a28.9 28.9 0 0 1-.5 3c0 .5 0 .6-.2 1.1a9.5 9.5 0 0 1-.7 1.8l-.3.2H43 43.3l.2-.2.4-.8.4-1.3.1-.5.2-1 .1-.8.1-1 .1-.7a56.2 56.2 0 0 1 .1-1.3l.1-.8v-1l.1-.8v-1a80.9 80.9 0 0 0 .1-2.4v-5.4l-.1-.6V8.8l-.1-.4V7.3l-.1-.6v-.4l-.1-.5v-.5l-.2-.5V4l-.1-.2v-.4l-.1-.2v-.3l-.2-.6L44 2a45.6 45.6 0 0 0-.8-1.8H43L43 0h9l.2.1a1.2 1.2 0 0 1 .3.4 3.3 3.3 0 0 1 .3.6l.2.6.1.5.2.7.1.8a22.5 22.5 0 0 1 .3 2l.2 1.1v1.3l.2 1.6v1.4l.2-.6a22.7 22.7 0 0 1 .6-2.2 20.2 20.2 0 0 1 2.3-4l.3-.4.6-.5 1-1 .3-.2A36 36 0 0 1 61.2 1l1-.4 1.1-.3 1.2-.2h9.6-1.4a10.7 10.7 0 0 0-6 3.2l-.9 1.1a59.5 59.5 0 0 0-1.4 2.2l-.5 1-.2.6-.3.6-.1.5-.2.9-.2.4v.6l-.2.8-.1.7a63.7 63.7 0 0 0-.1 1.5v2.3l.1.3.1.6.1.9.1.4.1.5.2.6.3.7.1.4.2.5.1.4a46.3 46.3 0 0 0 .7 1.3l.2.5.4.5.5.7.5.6.5.6.7.7a468.9 468.9 0 0 0 1.8 1.3l1 .5 1.3.5a15.7 15.7 0 0 0 2 .4H65a11.4 11.4 0 0 1-3.9-1.1 14.1 14.1 0 0 1-3.2-2.4l-.5-.6-.4-.6-.5-.5-.3-.6-.3-.5-.4-.8-.3-.5-.2-.4V21l-.3-.6-.2-.5v-.5l-.3-.7Z" fill="url(#f)"/><defs><linearGradient id="a" x1="77.9" y1="0" x2="77.9" y2="29.4" gradientUnits="userSpaceOnUse"><stop stop-color="#171717"/><stop offset=".1" stop-color="#3A3A3A"/><stop offset=".3" stop-color="#525252"/><stop offset="1" stop-color="#fff"/></linearGradient><linearGradient id="b" x1="35.9" y1="0" x2="35.9" y2="29.4" gradientUnits="userSpaceOnUse"><stop stop-color="#171717"/><stop offset=".1" stop-color="#3A3A3A"/><stop offset=".3" stop-color="#525252"/><stop offset="1" stop-color="#fff"/></linearGradient><linearGradient id="c" x1="9.6" y1="0" x2="9.6" y2="29.4" gradientUnits="userSpaceOnUse"><stop stop-color="#171717"/><stop offset=".1" stop-color="#3A3A3A"/><stop offset=".3" stop-color="#525252"/><stop offset="1" stop-color="#fff"/></linearGradient><linearGradient id="d" x1="9.6" y1="0" x2="9.6" y2="29.4" gradientUnits="userSpaceOnUse"><stop stop-color="#171717"/><stop offset=".1" stop-color="#3A3A3A"/><stop offset=".3" stop-color="#525252"/><stop offset="1" stop-color="#fff"/></linearGradient><linearGradient id="e" x1="14.5" y1="0" x2="14.5" y2="29.4" gradientUnits="userSpaceOnUse"><stop stop-color="#505050"/><stop offset=".3" stop-color="#414141"/><stop offset=".8" stop-color="#242424"/><stop offset="1" stop-color="#0A0A0A"/></linearGradient><linearGradient id="f" x1="58.5" y1="0" x2="58.5" y2="29.4" gradientUnits="userSpaceOnUse"><stop stop-color="#505050"/><stop offset=".3" stop-color="#414141"/><stop offset=".8" stop-color="#242424"/><stop offset="1" stop-color="#0A0A0A"/></linearGradient></defs></svg>