<svg width="86" height="30" viewBox="0 0 86 30" fill="none" xmlns="http://www.w3.org/2000/svg">
<g id="ioten-logo">
<path id="0-back" d="M72.6714 29.3062C72.8187 29.3336 73.2828 29.3859 73.4965 29.4087H74.2057C74.9444 29.4315 76.8474 29.2543 78.5495 28.3632C80.2516 27.472 81.2544 26.534 81.5431 26.1763C82.025 25.6593 83.1142 24.3927 83.6161 23.4633C84.118 22.5339 84.339 22.092 84.3867 21.9872L84.7072 21.2423L85.2255 19.7662C85.2936 19.5271 85.4382 19.0104 85.4709 18.8574C85.5037 18.7043 85.6073 18.1922 85.6551 17.9553C85.7028 17.7093 85.8037 17.127 85.8255 16.7662C85.8619 16.5101 85.9306 15.7833 85.9142 14.925C85.8937 13.8521 85.8899 13.3357 85.8187 12.7001C85.8301 12.7206 85.816 12.5129 85.6687 11.5179C85.4641 10.2604 85.3755 10.1716 85.0345 9.0577C84.7617 8.16657 84.2617 7.14651 84.0457 6.74788C83.8707 6.40163 83.4116 5.5547 82.9751 4.93692C82.4296 4.1647 81.9795 3.7 81.5431 3.23531C80.643 2.30591 79.9338 1.80704 79.0541 1.32868C78.1744 0.850314 77.4516 0.508624 76.2719 0.235273C75.3281 0.0165915 74.4239 -0.0107437 74.0898 0.00292389L73.5306 0.0165915L73.2442 0.0439266L72.7532 0.112265C72.4941 0.146434 72.0372 0.24894 71.744 0.330946C71.4507 0.412951 70.6529 0.617965 69.8891 1.02799C70.1074 1.12594 70.717 1.45579 71.4098 1.99156C72.2759 2.66127 73.0805 3.35148 73.9056 4.40389C74.7308 5.45629 75.2558 6.51553 75.6036 7.1579C75.9514 7.80028 76.3946 8.96886 76.5856 9.71374C76.7765 10.4586 76.8924 11.0737 77.0425 12.0646C77.1625 12.8573 77.2152 14.2582 77.2266 14.8596C77.2288 14.9644 77.2225 15.3831 77.1788 16.2195C77.1352 17.056 76.9697 17.9895 76.8924 18.3517C76.822 18.6888 76.6306 19.5161 76.4287 20.1284C76.1764 20.8938 76.1082 21.0237 75.8764 21.6319C75.6445 22.2401 74.9831 23.4292 74.7717 23.7572C74.6026 24.0196 73.9738 24.8779 73.6806 25.2743C73.4715 25.5385 72.9387 26.1654 72.4804 26.559C71.9076 27.0511 71.7712 27.1604 71.1302 27.6114C70.6174 27.9723 70.2528 28.1809 70.1346 28.2401L69.8823 28.37C70.196 28.5203 70.9938 28.8689 71.5257 29.0192C72.0576 29.1695 72.4872 29.272 72.6714 29.3062Z" fill="url(#paint0_linear_1_22)"/>
<path id="o1-back" d="M28.4052 29.4087C28.1909 29.3859 27.7254 29.3336 27.5776 29.3062C27.393 29.272 26.9621 29.1695 26.4286 29.0192C25.8952 28.8689 25.095 28.5203 24.7804 28.37L25.0334 28.2401C25.152 28.1809 25.5177 27.9723 26.032 27.6114C26.6749 27.1604 26.8116 27.0511 27.3861 26.559C27.8457 26.1654 28.3801 25.5385 28.5898 25.2743C28.8839 24.8779 29.5145 24.0196 29.6841 23.7572C29.8961 23.4292 30.5595 22.2401 30.792 21.6319C31.0246 21.0237 31.093 20.8938 31.346 20.1284C31.5485 19.5161 31.7404 18.6888 31.8111 18.3517C31.8886 17.9895 32.0546 17.056 32.0983 16.2195C32.1421 15.3831 32.1485 14.9644 32.1462 14.8596C32.1348 14.2582 32.0819 12.8573 31.9615 12.0646C31.8111 11.0737 31.6948 10.4586 31.5033 9.71374C31.3118 8.96886 30.8673 7.80028 30.5185 7.1579C30.1697 6.51553 29.6431 5.45629 28.8155 4.40389C27.988 3.35148 27.181 2.66127 26.3124 1.99156C25.6175 1.45579 25.0061 1.12594 24.7872 1.02799C25.5532 0.617965 26.3534 0.412951 26.6475 0.330946C26.9416 0.24894 27.3998 0.146434 27.6597 0.112265L28.1521 0.0439266L28.4394 0.0165915L29.0002 0.00292389C29.3353 -0.0107437 30.2422 0.0165915 31.1887 0.235273C32.3719 0.508624 33.0968 0.850314 33.9791 1.32868C34.8614 1.80704 35.5726 2.30591 36.4754 3.23531C36.9131 3.7 37.3645 4.1647 37.9116 4.93692C38.3493 5.5547 38.8099 6.40163 38.9854 6.74788C39.202 7.14651 39.7035 8.16657 39.9771 9.0577C40.319 10.1716 40.4079 10.2604 40.6131 11.5179C40.7218 12.2497 40.7582 12.5557 40.7653 12.6581L40.8935 9.46772C40.9528 8.70917 41.1001 6.95426 41.215 6.00299C41.3586 4.81391 41.4954 3.84351 41.6732 2.90045C41.851 1.95739 42.3845 0.00292388 42.9248 0.00292388H47V29.3199H43.171C43.1163 29.3636 43.0661 29.3837 43.0479 29.3882C43.0319 29.3928 42.9904 29.4019 42.9521 29.4019C42.5554 29.4019 42.1998 28.5545 41.9878 27.8301C41.7758 27.1057 41.6732 26.6342 41.4749 25.452C41.2765 24.2697 41.2697 24.0715 41.1261 22.6228C41.0112 21.4638 40.9551 20.5681 40.9414 20.2651L40.8251 17.7503L40.7704 16.7662C40.7485 17.127 40.6473 17.7093 40.5994 17.9553C40.5516 18.1922 40.4476 18.7043 40.4148 18.8574C40.382 19.0104 40.237 19.5271 40.1686 19.7662L39.6488 21.2423L39.3274 21.9872C39.2795 22.092 39.0579 22.5339 38.5545 23.4633C38.0512 24.3927 36.9587 25.6593 36.4754 26.1763C36.1859 26.534 35.1801 27.472 33.473 28.3632C31.7659 29.2543 29.8574 29.4315 29.1164 29.4087H28.4052Z" fill="url(#paint1_linear_1_22)"/>
<g class="i-back">
<path d="M10.6527 29.3969L10.7279 29.4106C11.6778 29.3764 12.1083 25.9924 12.1903 25.7258V18.3495H7V29.3559H10.5707C10.609 29.3832 10.6413 29.3946 10.6527 29.3969Z" fill="url(#paint2_linear_1_22)"/>
<path d="M11.4044 0.759751C11.1365 0.119876 10.8555 -0.0127482 10.7484 0.000924386H7V11.0825H12.1835V3.71302C12.1402 3.48515 12.0358 2.94052 11.9648 2.58504C11.8759 2.14068 11.7393 1.5596 11.4044 0.759751Z" fill="url(#paint3_linear_1_22)"/>
</g>
<path id="io-front" d="M2.18388 0H11.212C11.1411 0 11.0824 0.0182137 11.062 0.0273206C11.0529 0.031874 11.0265 0.046445 10.9938 0.0683014C10.9529 0.095622 10.8642 0.170753 10.7483 0.341507C10.6324 0.51226 10.4756 0.840107 10.3937 1.0655C10.3119 1.2909 10.271 1.4275 10.2165 1.59825C10.1728 1.73486 10.0983 2.01034 10.0664 2.131C10.0255 2.31314 9.93007 2.73206 9.87552 2.95062C9.82097 3.16918 9.77096 3.43328 9.75278 3.53801L9.7255 3.7156L9.56185 4.79476L9.5073 5.20457L9.42548 5.90124L9.35729 6.57059L9.27546 7.48583L9.24819 7.86832L9.18 8.79722L9.12545 9.52122L9.08453 10.1906L9.0709 10.6414L9.06408 11.0717L9.19364 10.4638C9.24591 10.2361 9.37638 9.69333 9.48003 9.34363C9.58367 8.99393 9.77778 8.49669 9.86188 8.29179C9.96189 8.04591 10.2165 7.44622 10.4347 7.01455C10.7074 6.47497 11.0552 5.83977 11.3893 5.31385C11.6566 4.89311 12.0189 4.42365 12.1666 4.24152L12.4667 3.89318L12.9985 3.34677L13.9395 2.47251L14.3487 2.14466C14.5691 1.98302 15.0415 1.63923 15.1669 1.55727C15.3238 1.45482 15.842 1.14746 16.0806 1.02452C16.3193 0.901578 16.5784 0.771806 17.1444 0.580562C17.7103 0.389318 17.7922 0.375658 18.249 0.259545C18.7059 0.143433 19.0537 0.109282 19.4355 0.0546411C19.741 0.0109282 19.9583 0 20.0287 0H27.5704H28.9819L28.4227 0.0136603L28.1363 0.0409808L27.6454 0.109282C27.3863 0.143433 26.9294 0.245885 26.6362 0.327847C26.343 0.409808 25.4088 0.683014 24.6451 1.09282C23.8814 1.50263 23.4654 1.74852 22.8176 2.28127C22.2994 2.70747 21.8471 3.16008 21.6857 3.33311L20.7311 4.41227C20.5356 4.68548 20.0956 5.30565 19.8992 5.60071C19.7028 5.89578 19.4537 6.36114 19.3537 6.55693L18.8354 7.58146L18.5627 8.22349L18.3581 8.79722L18.1945 9.30265L17.9626 10.1632L17.8535 10.6277L17.7308 11.2424L17.6081 11.9664L17.5126 12.7041C17.4944 12.8976 17.4553 13.3215 17.4444 13.469C17.4335 13.6166 17.4126 14.0405 17.4035 14.234L17.3899 14.7804V14.9034L17.4308 15.682L17.499 16.5153L17.5262 16.7748C17.5512 16.9843 17.6026 17.4114 17.6081 17.4442L17.7444 18.2501L17.8399 18.7146L17.949 19.179L18.1127 19.7664L18.3718 20.5451L18.5081 20.9139L18.6854 21.3647L18.8491 21.7608C18.9286 21.9475 19.0918 22.3291 19.1082 22.3619C19.1246 22.3947 19.3514 22.84 19.4628 23.0586L19.7492 23.5503L20.0901 24.0831L20.6356 24.8344L21.0993 25.4081L21.6312 25.9955L22.2994 26.6512C22.4517 26.7833 22.7658 27.0555 22.804 27.0883C22.8422 27.1211 23.1745 27.3752 23.3359 27.4981C23.5313 27.6302 23.955 27.9134 24.0859 27.9899C24.2496 28.0855 24.7678 28.3587 25.0815 28.4953C25.3952 28.6319 25.8861 28.8505 26.418 29.0008C26.9498 29.151 27.3794 29.2535 27.5635 29.2876C27.7108 29.315 28.175 29.3673 28.3886 29.3901L26.9089 29.3969L24.7542 29.4106C23.7564 29.4083 21.653 29.4024 21.222 29.3969C20.6834 29.3901 20.5265 29.3764 19.8719 29.3423C19.3482 29.315 18.6718 29.1943 18.399 29.1374C17.3967 28.9393 16.7693 28.7139 16.0125 28.3041C15.2556 27.8943 14.6146 27.4572 14.1032 27.061C13.5918 26.6649 13.0804 26.1731 12.8622 25.9409C12.6876 25.7551 12.4167 25.4263 12.303 25.2852L11.8803 24.7388L11.4575 24.1514L11.1302 23.6459L10.8438 23.1269L10.3801 22.2526L10.1483 21.8018L9.95734 21.351L9.83461 21.0232L9.63004 20.4221L9.46639 19.8894L9.33001 19.3976L9.15272 18.7146L9.05726 18.3321L9.0709 18.8375L9.08453 19.22L9.11181 19.7664L9.15272 20.4358L9.20727 21.1325L9.27546 21.8564L9.38456 22.9083C9.4232 23.2589 9.5073 24.0202 9.53458 24.2607C9.56867 24.5612 9.68459 25.3262 9.69823 25.4081C9.71187 25.4901 9.87552 26.3507 9.98462 26.8425C10.0719 27.2359 10.1937 27.6894 10.2437 27.867L10.2455 27.8729C10.2794 27.9886 10.3274 28.1519 10.4347 28.4407C10.5463 28.7412 10.6938 28.9735 10.8029 29.1101C10.912 29.2467 10.987 29.2945 11.0347 29.3286C11.0729 29.3559 11.1052 29.3673 11.1165 29.3696L11.1916 29.3833L2.62029 29.3969C2.55438 29.3969 2.38845 29.3942 2.25208 29.3833C2.08161 29.3696 1.94523 29.2808 1.82931 29.1237C1.71339 28.9666 1.65884 28.8778 1.55656 28.6456C1.47473 28.4598 1.39518 28.2404 1.36563 28.1538C1.22243 27.7509 1.1747 27.5664 1.07924 27.184C1.00287 26.878 0.920133 26.4645 0.888311 26.296L0.751935 25.613L0.629196 24.7251L0.451907 23.3864L0.329168 22.1433L0.26098 21.3783C0.247342 21.2395 0.211884 20.8456 0.179154 20.3811C0.146424 19.9167 0.129149 19.5683 0.124603 19.4522L0.097328 18.7146L0.0700527 17.7106C0.0632339 17.3782 0.0482325 16.6628 0.0427775 16.4606C0.0359586 16.2079 0.0223149 15.1424 0.0154961 14.8692C0.00867724 14.596 -0.0049604 13.6603 0.00185842 13.2915C0.00731348 12.9964 0.0314066 12.3671 0.0427713 12.0893L0.11096 10.6823L0.233698 8.48303C0.247336 8.20983 0.282794 7.56233 0.315524 7.15799C0.356437 6.65256 0.417807 6.22909 0.438263 6.03784C0.458719 5.8466 0.588277 4.93136 0.62919 4.63084C0.670103 4.33031 0.799661 3.5585 0.888305 3.08722C0.97695 2.61594 1.12015 1.97391 1.18833 1.7212C1.25652 1.46848 1.37926 1.07916 1.48836 0.846937C1.59746 0.614713 1.65883 0.46445 1.84294 0.232225C1.99023 0.046445 2.1316 0 2.18388 0Z" fill="url(#paint4_linear_1_22)"/>
<path id="10-front" d="M54.2314 18.7171L54.1358 18.3347L54.1271 18.2869V18.3142L54.0998 19.0517L54.0861 19.4204L54.0588 19.953L54.0452 20.1989L53.9906 20.8544L53.9223 21.6465L53.895 21.9606L53.8404 22.5479L53.7721 23.2444C53.7539 23.3946 53.712 23.7306 53.6902 23.8726C53.6629 24.0502 53.5673 24.7808 53.54 25.0198C53.5127 25.2588 53.4512 25.6071 53.3488 26.1397C53.2464 26.6723 53.2055 26.8362 53.0894 27.3415C52.9734 27.8468 52.7003 28.5229 52.6252 28.6936C52.5501 28.8643 52.4545 29.0282 52.3794 29.117C52.3043 29.2057 52.2361 29.274 52.1473 29.3218C52.0763 29.3601 51.9812 29.3742 51.9425 29.3764H42.9857C43.0239 29.3764 43.0653 29.3673 43.0813 29.3628C43.0995 29.3582 43.1495 29.3382 43.2041 29.2945C43.2588 29.2508 43.3452 29.1579 43.3816 29.117C43.4545 29.0396 43.6411 28.7728 43.8049 28.3248C43.9687 27.8769 44.128 27.2277 44.1872 26.9591L44.2964 26.4675L44.4876 25.4978L44.6105 24.6511C44.6378 24.4708 44.7038 23.9386 44.7334 23.6951L44.8016 23.0122C44.813 22.8984 44.8426 22.6107 44.8699 22.3703C44.8972 22.13 44.9268 21.8241 44.9382 21.7011L45.0064 20.9227L45.0337 20.6086C45.0428 20.4675 45.0638 20.1333 45.0747 19.9257C45.0884 19.6662 45.0952 19.5433 45.1157 19.1268C45.1361 18.7102 45.143 18.4712 45.1566 18.1366C45.1675 17.869 45.1794 17.4879 45.1839 17.3309C45.1885 17.2011 45.2003 16.8611 45.2112 16.5388C45.2222 16.2165 45.2158 15.8127 45.2112 15.651V14.8726V14.6814L45.1703 11.909L45.143 11.0213L45.1157 10.2701L45.0884 9.73752L45.061 9.36878L45.0201 8.83615L44.9928 8.42644L44.9518 7.86649L44.9109 7.33387L44.8562 6.7193L44.8153 6.29593L44.7607 5.77696L44.706 5.32627L44.6378 4.8073L44.5832 4.4249L44.5149 3.96056L44.4876 3.78302L44.4193 3.40062L44.3784 3.19576L44.3101 2.89531L44.1804 2.34219C44.1476 2.20016 44.0871 1.97118 44.0643 1.88468C44.012 1.71397 43.895 1.33567 43.8459 1.18817C43.7967 1.04067 43.7162 0.853569 43.682 0.778455C43.6297 0.669198 43.51 0.428833 43.4499 0.341428C43.3748 0.232171 43.3339 0.184371 43.2724 0.122914C43.211 0.061457 43.1427 0.0204857 43.1086 0.0136571C43.0813 0.00819427 42.9971 0.00227618 42.9584 0H52.0244C52.1132 0 52.1405 0.0204857 52.2292 0.0955998C52.3126 0.166173 52.3931 0.259485 52.4204 0.300456C52.4318 0.314114 52.4723 0.371473 52.5433 0.491656C52.6143 0.611838 52.673 0.732931 52.6935 0.778455C52.7139 0.823979 52.7672 0.947803 52.8163 1.07891C52.8655 1.21002 52.9643 1.52504 53.0075 1.66617L53.144 2.21245L53.2942 2.93628L53.4308 3.67376C53.4444 3.74432 53.4881 3.99607 53.5536 4.43856C53.6192 4.88105 53.6993 5.46057 53.7311 5.69501L53.8677 6.84221L53.9633 8.07135L54.0588 9.7102L54.1426 11.0759L54.2723 10.4682C54.3247 10.2406 54.4553 9.69791 54.5591 9.34829C54.6628 8.99867 54.8572 8.50155 54.9414 8.29669C55.0415 8.05087 55.2964 7.45132 55.5148 7.01975C55.7879 6.4803 56.1361 5.84524 56.4706 5.31944C56.7382 4.8988 57.1009 4.42946 57.2488 4.24736L57.5492 3.8991L58.0817 3.35282L59.0238 2.47877L59.4334 2.15099C59.6542 1.98939 60.127 1.64568 60.2527 1.56374C60.4097 1.46131 60.9285 1.15403 61.1675 1.03111C61.4064 0.908198 61.6658 0.778455 62.2324 0.587256C62.7991 0.396056 62.881 0.382399 63.3384 0.266314C63.7958 0.150228 64.144 0.116085 64.5263 0.061457C64.8321 0.0177542 65.0497 0.00682855 65.1202 0.00682855H72.6707H74.0839L73.5241 0.0204857L73.2373 0.0477999L72.7458 0.116085C72.4864 0.150228 72.029 0.252657 71.7354 0.334599C71.4419 0.416542 70.5066 0.689684 69.742 1.0994C68.9774 1.50911 68.5609 1.75494 67.9124 2.28757C67.3935 2.71367 66.9407 3.16617 66.7791 3.33916L65.8234 4.41807C65.6277 4.69122 65.1871 5.31125 64.9905 5.60624C64.7939 5.90124 64.5445 6.36649 64.4443 6.56224L63.9255 7.58652L63.6524 8.22841L63.4476 8.80201L63.2838 9.30732L63.0517 10.1677L62.9424 10.6321L62.8196 11.2466L62.6967 11.9705L62.6011 12.7079C62.5829 12.9014 62.5438 13.3252 62.5328 13.4727C62.5219 13.6202 62.501 14.0441 62.4919 14.2375L62.4782 14.7838V14.9067L62.5192 15.6852L62.5874 16.5183L62.6147 16.7778C62.6398 16.9872 62.6912 17.4142 62.6967 17.447L62.8332 18.2527L62.9288 18.7171L63.038 19.1814L63.2019 19.7687L63.4613 20.5471L63.5978 20.9159L63.7753 21.3665L63.9392 21.7626C64.0188 21.9493 64.1822 22.3307 64.1986 22.3635C64.215 22.3963 64.4421 22.8415 64.5536 23.06L64.8403 23.5517L65.1816 24.0843L65.7278 24.8355L66.192 25.4091L66.7245 25.9963L67.3935 26.6518C67.546 26.7839 67.8605 27.0561 67.8987 27.0889C67.937 27.1217 68.2697 27.3757 68.4312 27.4986C68.6269 27.6306 69.0511 27.9138 69.1822 27.9902C69.346 28.0858 69.8649 28.359 70.1789 28.4956C70.4929 28.6321 70.9845 28.8506 71.517 29.0009C72.0495 29.1511 72.4796 29.2535 72.6639 29.2877C72.8113 29.315 73.276 29.3673 73.4899 29.3901L72.0085 29.3969L69.8512 29.4106C68.8522 29.4083 66.7464 29.4024 66.3149 29.3969C65.7756 29.3901 65.6186 29.3764 64.9632 29.3423C64.4389 29.315 63.7617 29.1943 63.4886 29.1374C62.485 28.9394 61.857 28.7141 61.0992 28.3044C60.3414 27.8946 59.6997 27.4576 59.1877 27.0616C58.6757 26.6655 58.1636 26.1738 57.9452 25.9417C57.7704 25.7559 57.4992 25.4273 57.3854 25.2861L56.9621 24.7399L56.5388 24.1526L56.2112 23.6473L55.9244 23.1283L55.4602 22.2543L55.2281 21.8036L55.0369 21.3529L54.9141 21.0251L54.7093 20.4242L54.5454 19.8916L54.4089 19.3999L54.2314 18.7171Z" fill="url(#paint5_linear_1_22)"/>
</g>
<defs>
<linearGradient id="paint0_linear_1_22" x1="77.8995" y1="0" x2="77.8995" y2="29.4106" gradientUnits="userSpaceOnUse">
<stop stop-color="#171717"/>
<stop offset="0.119792" stop-color="#3A3A3A"/>
<stop offset="0.286458" stop-color="#525252"/>
<stop offset="1" stop-color="white"/>
</linearGradient>
<linearGradient id="paint1_linear_1_22" x1="35.8902" y1="0" x2="35.8902" y2="29.4106" gradientUnits="userSpaceOnUse">
<stop stop-color="#171717"/>
<stop offset="0.119792" stop-color="#3A3A3A"/>
<stop offset="0.286458" stop-color="#525252"/>
<stop offset="1" stop-color="white"/>
</linearGradient>
<linearGradient id="paint2_linear_1_22" x1="9.59514" y1="0" x2="9.59514" y2="29.4106" gradientUnits="userSpaceOnUse">
<stop stop-color="#171717"/>
<stop offset="0.119792" stop-color="#3A3A3A"/>
<stop offset="0.286458" stop-color="#525252"/>
<stop offset="1" stop-color="white"/>
</linearGradient>
<linearGradient id="paint3_linear_1_22" x1="9.59514" y1="0" x2="9.59514" y2="29.4106" gradientUnits="userSpaceOnUse">
<stop stop-color="#171717"/>
<stop offset="0.119792" stop-color="#3A3A3A"/>
<stop offset="0.286458" stop-color="#525252"/>
<stop offset="1" stop-color="white"/>
</linearGradient>
<linearGradient id="paint4_linear_1_22" x1="14.4909" y1="0" x2="14.4909" y2="29.4106" gradientUnits="userSpaceOnUse">
<stop stop-color="#505050"/>
<stop offset="0.260417" stop-color="#414141"/>
<stop offset="0.770833" stop-color="#242424"/>
<stop offset="1" stop-color="#0A0A0A"/>
</linearGradient>
<linearGradient id="paint5_linear_1_22" x1="58.5211" y1="0" x2="58.5211" y2="29.4106" gradientUnits="userSpaceOnUse">
<stop stop-color="#505050"/>
<stop offset="0.260417" stop-color="#414141"/>
<stop offset="0.770833" stop-color="#242424"/>
<stop offset="1" stop-color="#0A0A0A"/>
</linearGradient>
</defs>
</svg>
