<svg width="363" height="390" viewBox="0 0 363 390" fill="none" xmlns="http://www.w3.org/2000/svg">
<path d="M124.506 269.323L2.40576 238.899L40.5368 94.8938M124.506 269.323L275.814 249.852M124.506 269.323L40.5368 94.8938M124.506 269.323L160.204 386.962M124.506 269.323L216.183 181.703M275.814 249.852L360.189 154.524L216.183 68.1209M275.814 249.852L319.218 313.945M275.814 249.852L216.183 181.703M216.183 68.1209H124.506M216.183 68.1209L166.288 2L124.506 68.1209M216.183 68.1209V181.703M124.506 68.1209L40.5368 94.8938" stroke="white" stroke-opacity="0.3"/>
<path d="M159.798 388.179L2 238.899L39.3198 95.7051L166.694 2L286.27 51.6132L361 154.524L319.218 314.756L159.798 388.179Z" stroke="white" stroke-width="3"/>
<circle cx="188.385" cy="195.089" r="103.249" fill="url(#paint0_radial_126_5175)"/>
<path d="M2 238.899L148.034 198.334M159.798 388.179L224.296 238.899M224.296 238.899L148.034 198.334M224.296 238.899L319.218 314.756L293.257 214.155M224.296 238.899L293.257 214.155M148.034 198.334L143.572 123.289M293.257 214.155L361 154.524M293.257 214.155C293.257 208.709 293.257 163.203 293.257 123.289M166.694 2L143.572 123.289M143.572 123.289H293.257M143.572 123.289L286.941 51.6132C286.941 62.5463 293.257 108.495 293.257 123.289M143.572 123.289L39.3198 95.7051" stroke="white" stroke-width="2"/>
<defs>
<radialGradient id="paint0_radial_126_5175" cx="0" cy="0" r="1" gradientUnits="userSpaceOnUse" gradientTransform="translate(158.885 163.578) rotate(58.0334) scale(210.218)">
<stop stop-color="#EAFC15"/>
<stop offset="0.161458" stop-color="#E6F011"/>
<stop offset="0.598958" stop-color="#2E3E5B"/>
</radialGradient>
</defs>
</svg>
