<svg width="29" height="33" viewBox="0 0 29 33" fill="none" xmlns="http://www.w3.org/2000/svg">
<path d="M0.00633368 13.2101L0.00633394 19C0.297727 18.8346 0.909652 18.4045 1.02621 18.0075C1.17191 17.5112 2.70172 14.9471 3.94015 13.8718C5.17857 12.7966 4.74148 13.0447 7.14548 11.5559C9.54947 10.0671 13.5561 9.48809 16.7615 9.90165C19.3257 10.2325 21.618 11.3629 22.4436 11.8867C22.735 12.0246 23.6675 12.6146 25.0662 13.8718C26.4649 15.1291 27.5916 17.1528 27.9801 18.0075L28.2715 18.6691L29 19L29 13.3756C29 10.7288 28.2715 8.08198 26.5232 5.76604C24.7748 3.4501 22.5165 2.04399 20.841 1.29958C19.1655 0.555171 16.6158 -0.354663 12.2449 0.141611C7.87396 0.637884 4.45008 3.53281 3.94015 4.1118C0.443424 7.48646 -0.0665178 11.5559 0.00633368 13.2101Z" fill="url(#paint0_linear_12_20)"/>
<path d="M0.582268 24.7337C0.116453 23.401 -4.74253e-07 22.1504 -4.94305e-07 21.6916L-8.74228e-07 13C-8.07741e-07 14.521 0.509484 17.1285 2.47464 19.3738C4.4398 21.6192 6.40495 22.4883 7.42392 22.9953C8.44289 23.5023 11.2087 24.4439 14.7023 24.4439C18.1959 24.2991 19.7971 23.7196 21.8351 22.8505C23.873 21.9813 26.7116 19.8084 27.9489 17.2009C28.6704 15.6804 28.9202 14.4266 28.9743 13.6529C28.9721 13.4184 28.97 13.1994 28.9679 13C28.9876 13.144 28.9945 13.3653 28.9743 13.6529C28.9973 16.1163 29.021 20.2908 28.9679 21.4019C28.8951 22.9229 28.8223 23.0678 28.5311 24.2991C28.24 25.5304 26.7843 27.993 25.0375 29.3692C23.2907 30.7453 23.1452 30.6729 21.8351 31.3972C20.787 31.9766 18.6811 32.5078 17.7592 32.701C17.1041 32.8217 15.4592 33.0486 14.12 32.9907C12.446 32.9183 11.4998 32.7734 9.89856 32.4113C8.29732 32.0491 5.45877 30.7454 3.93031 29.3692C2.40186 27.993 1.16454 26.3996 0.582268 24.7337Z" fill="url(#paint1_linear_12_20)"/>
<defs>
<linearGradient id="paint0_linear_12_20" x1="-4.15258e-07" y1="9.5" x2="29" y2="9.5" gradientUnits="userSpaceOnUse">
<stop stop-color="#171717"/>
<stop offset="0.119792" stop-color="#3A3A3A"/>
<stop offset="0.286458" stop-color="#525252"/>
<stop offset="1" stop-color="white"/>
</linearGradient>
<linearGradient id="paint1_linear_12_20" x1="-4.37114e-07" y1="23" x2="29" y2="23" gradientUnits="userSpaceOnUse">
<stop stop-color="#505050"/>
<stop offset="0.260417" stop-color="#414141"/>
<stop offset="0.770833" stop-color="#242424"/>
<stop offset="1" stop-color="#0A0A0A"/>
</linearGradient>
</defs>
</svg>
