<svg width="25" height="29" viewBox="0 0 25 29" fill="none" xmlns="http://www.w3.org/2000/svg">
<g class="o-ring-md-front">
<path id="front" d="M0.501955 21.7357C0.100391 20.5645 -4.08839e-07 19.4655 -4.26125e-07 19.0623L-7.53645e-07 11.4242C-6.96329e-07 12.7609 0.43921 15.0523 2.13331 17.0255C3.82741 18.9987 5.52151 19.7625 6.39993 20.208C7.27835 20.6536 9.66264 21.481 12.6744 21.481C15.6861 21.3537 17.0665 20.8445 18.8233 20.0807C20.5802 19.3169 23.0272 17.4074 24.0939 15.116C24.7159 13.7797 24.9312 12.6779 24.9779 11.998C24.976 11.7919 24.9741 11.5995 24.9723 11.4242C24.9893 11.5508 24.9952 11.7452 24.9779 11.998C24.9977 14.1628 25.0181 17.8313 24.9723 18.8077C24.9095 20.1444 24.8468 20.2717 24.5958 21.3537C24.3448 22.4358 23.09 24.5999 21.5841 25.8093C20.0782 27.0186 19.9527 26.955 18.8233 27.5915C17.9198 28.1007 16.1044 28.5675 15.3096 28.7372C14.7449 28.8433 13.3269 29.0427 12.1724 28.9918C10.7293 28.9282 9.91362 28.8009 8.53324 28.4826C7.15286 28.1644 4.70583 27.0187 3.3882 25.8093C2.07057 24.5999 1.00391 23.1996 0.501955 21.7357Z" fill="url(#paint0_linear_17_56)"/>
</g>
<defs>
<linearGradient id="paint0_linear_17_56" x1="-3.76822e-07" y1="20.2121" x2="25" y2="20.2121" gradientUnits="userSpaceOnUse">
<stop stop-color="#505050"/>
<stop offset="0.260417" stop-color="#414141"/>
<stop offset="0.770833" stop-color="#242424"/>
<stop offset="1" stop-color="#0A0A0A"/>
</linearGradient>
</defs>
</svg>
