<svg width="25" height="29" viewBox="0 0 25 29" fill="none" xmlns="http://www.w3.org/2000/svg">
<g id="o-ring-back-md">
<path id="back" d="M0.00546007 11.6089L0.00546029 16.697C0.256661 16.5516 0.784183 16.1736 0.884663 15.8247C1.01026 15.3886 2.32907 13.1353 3.39668 12.1904C4.46429 11.2455 4.08748 11.4635 6.15989 10.1552C8.2323 8.84682 11.6863 8.33801 14.4495 8.70144C16.6601 8.99219 18.6362 9.98557 19.348 10.4459C19.5992 10.5671 20.403 11.0856 21.6088 12.1904C22.8145 13.2952 23.7859 15.0736 24.1208 15.8247L24.372 16.4062L25 16.697L25 11.7543C25 9.42831 24.372 7.10234 22.8648 5.06712C21.3576 3.0319 19.4108 1.79623 17.9664 1.14205C16.522 0.487869 14.3239 -0.311682 10.5559 0.124437C6.78789 0.560556 3.83628 3.10458 3.39668 3.61339C0.382262 6.579 -0.0573429 10.1552 0.00546007 11.6089Z" fill="url(#paint0_linear_16_53)"/>
</g>
<defs>
<linearGradient id="paint0_linear_16_53" x1="-3.57981e-07" y1="8.34848" x2="25" y2="8.34847" gradientUnits="userSpaceOnUse">
<stop stop-color="#171717"/>
<stop offset="0.119792" stop-color="#3A3A3A"/>
<stop offset="0.286458" stop-color="#525252"/>
<stop offset="1" stop-color="white"/>
</linearGradient>
</defs>
</svg>
