<svg viewBox="0 0 382 567" fill="none" xmlns="http://www.w3.org/2000/svg">
<path fill-rule="evenodd" clip-rule="evenodd" d="M363.318 14.6902C363.246 14.6538 363.173 14.6173 363.101 14.5806C355.57 10.7871 350.895 8.55355 348.941 7.79142C347.88 7.37805 347.025 7.02241 346.409 6.73078C346.11 6.589 345.801 6.43198 345.536 6.26521C345.408 6.18476 345.221 6.05899 345.032 5.88949L345.026 5.88439C344.914 5.78311 344.419 5.3395 344.219 4.57797C344.032 3.86819 344.074 3.13258 344.34 2.44854C344.606 1.76451 345.072 1.19396 345.689 0.796933C346.346 0.374933 347.004 0.378235 347.153 0.378985L347.162 0.379022C347.412 0.379965 347.634 0.412022 347.782 0.437876C348.09 0.491459 348.424 0.580661 348.743 0.67573C349.398 0.871168 350.275 1.17875 351.346 1.58087C351.661 1.69889 352.026 1.846 352.442 2.02192C353.879 2.54271 355.644 3.19653 357.734 3.98194C364.107 6.37681 368.806 8.20925 371.807 9.47246C374.718 10.6981 376.879 11.7178 378.006 12.5C378.454 12.8108 378.823 13.0745 379.099 13.2832C379.235 13.3857 379.373 13.494 379.496 13.5997L379.502 13.6049C379.555 13.6486 379.858 13.9023 380.092 14.2634L380.094 14.2658C380.101 14.2754 380.112 14.2892 380.127 14.3073C380.141 14.3235 380.158 14.3433 380.178 14.3669C380.661 14.9195 380.95 15.5971 381.016 16.3283C381.082 17.0594 380.917 17.7776 380.541 18.4076C380.233 18.9219 379.596 19.6046 378.541 19.75C378.393 19.7705 378.251 19.7781 378.114 19.7757C378.113 19.776 378.111 19.7762 378.11 19.7765C377.828 19.8276 377.484 19.8834 377.083 19.9439C376.95 20.031 376.634 20.2487 376.098 20.6257C375.503 21.0446 373.919 22.0757 371.422 23.6744C368.795 25.3569 364.393 27.7735 358.29 30.903C355.236 32.4685 352.895 33.6504 351.272 34.4438C350.464 34.839 349.816 35.1474 349.339 35.3609C349.33 35.3647 349.322 35.3685 349.313 35.3722C348.628 35.7984 347.836 35.9609 347.047 35.8415C346.509 35.7663 346.008 35.5662 345.574 35.2562C345.138 34.9504 344.783 34.5451 344.533 34.0639C344.277 33.5844 344.144 33.0611 344.14 32.5273C344.131 31.9933 344.25 31.4664 344.494 30.9805C344.857 30.2356 345.471 29.6618 346.251 29.3454C346.698 29.0846 347.316 28.7436 348.089 28.3282C349.667 27.4805 351.974 26.2796 355.002 24.7296C356.996 23.7084 358.82 22.7712 360.472 21.9178C355.831 22.4235 351.151 22.9101 346.433 23.3776C339.214 24.093 330.821 25.0333 321.253 26.1992C311.705 27.3627 301.351 28.8178 290.191 30.5652C279.059 32.3082 268.626 34.3051 258.892 36.5547C249.195 38.7956 240.911 41.3972 234.019 44.3448C227.153 47.281 221.441 50.7785 216.839 54.8113C212.236 58.8461 208.316 63.746 205.086 69.5355C201.855 75.3255 199.132 82.4272 196.945 90.8801C194.792 99.1984 193.738 109.81 193.841 122.777C193.944 135.68 195.629 151.002 198.923 168.768C202.221 186.556 206.53 205.468 211.852 225.506C217.183 245.578 222.666 265.258 228.299 284.546C233.943 303.867 239.005 321.773 243.487 338.264C247.98 354.798 251.668 370.794 254.55 386.253C257.437 401.737 259.47 417.723 260.649 434.21C261.831 450.736 261.719 466.868 260.31 482.604C258.895 498.404 255.652 512.416 250.541 524.607C245.398 536.874 238.159 546.298 228.756 552.716C219.501 559.034 209.291 562.95 198.154 564.456C187.256 565.93 176.261 566.447 165.171 566.009C154.135 565.574 142.388 564.516 129.93 562.84C117.486 561.166 103.637 558.886 88.3836 556.003C73.143 553.122 55.2157 549.516 34.604 545.187C24.3032 543.024 16.5526 541.388 11.354 540.28C8.75541 539.726 6.79043 539.303 5.46207 539.012C4.79917 538.867 4.28741 538.753 3.93225 538.671C3.75665 538.63 3.60673 538.594 3.49149 538.565C3.43623 538.552 3.37019 538.534 3.3059 538.516C3.27543 538.507 3.22355 538.492 3.16347 538.472C3.13353 538.462 3.08449 538.444 3.02572 538.421C2.9836 538.404 2.8566 538.353 2.70579 538.266C2.06893 537.901 1.5742 537.355 1.27354 536.686C0.972866 536.016 0.893493 535.284 1.04378 534.565C1.19409 533.847 1.56049 533.208 2.10427 532.715L3.04102 531.866L66.8931 544.816L66.8941 544.817L66.915 544.821L66.9253 544.823L66.9818 544.833L112.444 553.428L130.91 555.911C143.198 557.564 154.737 558.601 165.53 559.026C176.27 559.449 186.873 558.958 197.341 557.554C207.573 556.182 216.831 552.634 225.15 546.91C233.324 541.285 239.768 532.899 244.408 521.585C249.081 510.191 252.1 496.908 253.425 481.7C254.755 466.434 254.839 450.719 253.673 434.554C252.504 418.353 250.498 402.644 247.657 387.427C244.811 372.184 241.164 356.382 236.714 340.02C232.254 323.616 227.207 305.773 221.575 286.49C215.933 267.174 210.439 247.452 205.093 227.325C199.739 207.164 195.393 188.09 192.058 170.105C188.718 152.095 186.979 136.377 186.866 122.971C186.754 109.626 187.831 98.3991 190.153 89.3481C192.442 80.427 195.351 72.7437 198.909 66.3362C202.467 59.9274 206.841 54.4119 212.036 49.8122C217.237 45.2082 223.57 41.3108 230.994 38.0951C238.391 34.8911 247.112 32.131 257.132 29.8004C267.112 27.4792 277.747 25.4345 289.034 23.6648C300.291 21.8999 310.739 20.4298 320.375 19.2552C329.991 18.083 338.441 17.1357 345.722 16.4141C351.647 15.8268 357.512 15.2522 363.318 14.6902Z" fill="#E61B1B"/>
</svg>
