<svg viewBox="0 0 586 122" fill="none" xmlns="http://www.w3.org/2000/svg">
<path id="wireframe-line-3" fill-rule="evenodd" clip-rule="evenodd" d="M32.1008 21.4341C31.8856 24.7601 31.7985 28.342 31.8416 32.1821C31.9138 38.6011 32.1784 45.287 32.636 52.2402C33.0911 59.156 33.8628 65.8665 34.9501 72.3724C36.0265 78.8134 37.6142 84.6457 39.7006 89.8813C41.6927 94.8802 44.9131 99.1897 49.421 102.822C53.8545 106.394 59.827 109.028 67.4728 110.617C75.1913 112.221 83.755 113.001 93.1761 112.939C102.681 112.877 112.153 112.462 121.593 111.695C131.098 110.923 140.12 110.204 148.661 109.538C157.213 108.87 166.486 108.22 176.478 107.588C186.45 106.956 198.513 106.133 212.669 105.118C226.834 104.102 242.737 103.014 260.377 101.853C278.033 100.692 296.521 99.6836 315.842 98.8286C335.175 97.9731 354.344 97.4633 373.349 97.2991C392.357 97.1349 409.826 97.3756 425.754 98.0222C441.666 98.668 455.402 99.5569 466.954 100.691C478.467 101.821 488.305 102.961 496.46 104.113C504.553 105.255 511.712 106.181 517.938 106.891C524.096 107.593 529.91 107.893 535.382 107.797C540.834 107.701 545.787 107.143 550.253 106.14C554.714 105.138 558.261 103.741 560.972 102.011C563.699 100.27 565.825 98.1368 567.394 95.6123C569.04 92.9646 570.42 89.8493 571.513 86.2425C572.634 82.5459 573.636 78.5298 574.518 74.1914C575.389 69.9024 575.946 65.6067 576.19 61.3036C576.43 57.0649 576.204 52.7209 575.506 48.2683C574.802 43.7768 573.752 39.3151 572.352 34.8824C570.931 30.3786 569.448 26.1369 567.904 22.1563C566.369 18.1967 564.732 14.5538 562.996 11.2241C562.102 9.50825 561.416 8.16538 560.944 7.20465C560.709 6.72666 560.518 6.32368 560.377 6.00772C560.308 5.85122 560.241 5.69407 560.185 5.54781L560.184 5.54372C560.148 5.44896 560.045 5.17972 559.994 4.8709C559.857 4.03573 559.984 3.20164 560.365 2.44528C560.745 1.68907 561.338 1.08911 562.09 0.700621C562.842 0.312171 563.675 0.175558 564.511 0.303323L565.683 0.482304L572.847 12.6101L572.897 12.7163L572.898 12.7177L572.9 12.7221L572.908 12.7396L578.512 24.6533L578.514 24.6577L578.515 24.6592L578.586 24.8097L578.636 24.9683L578.637 24.97L578.638 24.9751L578.645 24.9957L580.859 31.9854C582.379 36.7814 583.532 41.6514 584.318 46.5944C585.11 51.5786 585.386 56.5086 585.142 61.3816C584.901 66.1967 584.31 70.9647 583.369 75.6844C582.439 80.3531 581.365 84.6936 580.147 88.7025C578.899 92.8073 577.243 96.5551 575.167 99.9324C573.011 103.441 570.08 106.431 566.425 108.912C562.731 111.419 558.21 113.292 552.93 114.585C547.667 115.874 542.016 116.583 535.986 116.725C529.991 116.866 523.728 116.57 517.199 115.841C510.742 115.12 503.428 114.183 495.258 113.03C487.151 111.887 477.394 110.755 465.979 109.635C454.603 108.52 441.033 107.642 425.262 107.005C409.508 106.368 392.196 106.131 373.323 106.296C354.447 106.461 335.396 106.969 316.169 107.821C296.929 108.674 278.515 109.679 260.927 110.836C243.323 111.994 227.447 113.081 213.3 114.096C199.142 115.111 187.063 115.935 177.062 116.569C167.081 117.201 157.838 117.849 149.332 118.512C140.815 119.177 131.809 119.895 122.314 120.666C112.753 121.442 103.1 121.86 93.3542 121.92C83.518 121.981 74.3685 121.135 65.9152 119.366C57.3719 117.579 50.1911 114.487 44.4737 110.01C38.8139 105.578 34.6124 100.224 31.9285 93.9561C29.3378 87.9054 27.4372 81.3521 26.2166 74.3057C25.0109 67.3449 24.1666 60.2559 23.6833 53.0393C23.2022 45.8566 22.9578 38.9007 22.951 32.1722C22.9454 26.6917 23.2215 21.7211 23.7884 17.2698C21.7264 19.4445 18.7433 22.8684 14.8174 27.5788C12.6211 30.214 10.8846 32.2423 9.61753 33.6494C9.09014 34.2351 8.62789 34.7312 8.23771 35.1262C7.62895 35.9499 6.78585 36.5025 5.80049 36.7278C5.13112 36.893 4.45234 36.8925 3.79826 36.7289C3.1419 36.5748 2.53822 36.2644 2.01882 35.811C1.49173 35.3666 1.09319 34.8171 0.841028 34.1918C0.579947 33.5702 0.476211 32.8994 0.53774 32.2127C0.607088 31.2535 0.988786 30.3766 1.6471 29.6676C1.98176 29.1921 2.41869 28.6101 2.94638 27.9317C4.13066 26.4093 5.85266 24.299 8.10087 21.6119C12.5998 16.2347 16.2048 12.3122 18.8804 9.93589C21.0028 8.0509 23.3266 6.84735 25.7957 6.5934C25.7978 6.58695 25.7999 6.58047 25.8021 6.57396C25.9477 5.89509 26.3212 5.18726 27.0685 4.67885C27.8457 4.15011 28.7412 3.88943 29.6808 3.91847C30.6203 3.94752 31.498 4.26302 32.2411 4.83875C32.9188 5.36392 33.4572 6.09433 33.8912 6.8007C34.2801 7.43365 35.2906 9.1306 36.9063 11.8622C38.5659 14.6684 41.0961 19.3633 44.4808 25.9049C45.3568 27.5979 46.1183 29.0934 46.7634 30.3886C47.2244 31.2243 47.5978 31.919 47.8831 32.4719C48.4572 33.5845 48.9078 34.5473 49.1951 35.3228C49.3366 35.7045 49.4693 36.1219 49.543 36.5347C49.5938 36.8189 49.731 37.6473 49.3285 38.4942C48.9251 39.3432 48.284 40.0207 47.4586 40.4704C46.6332 40.9201 45.7163 41.0914 44.7842 40.9701C43.8392 40.847 43.2154 40.2678 43.0029 40.0647C42.697 39.7722 42.4228 39.428 42.1855 39.099C41.7032 38.4303 41.1598 37.5227 40.5639 36.4322C40.3967 36.1263 40.2021 35.7727 39.9799 35.3714C39.1322 33.9366 38.119 32.1698 36.9428 30.0766C35.7094 27.8819 34.5919 25.8648 33.5911 24.0265C33.4736 23.8193 33.3547 23.6097 33.2345 23.3978C32.8411 22.7045 32.4632 22.0501 32.1008 21.4341Z" fill="#E61B1B"/>
</svg>
