<svg viewBox="0 0 677 119" fill="none" xmlns="http://www.w3.org/2000/svg">
<path id="line-2" fill-rule="evenodd" clip-rule="evenodd" d="M36.48 2.57876C36.3425 2.8517 36.2049 3.14842 36.0674 3.4608C35.8845 3.87627 35.6871 4.35375 35.4753 4.89171C33.4048 4.99085 31.2865 5.47769 29.1529 6.2996C25.1346 7.8476 19.5924 10.6462 12.5941 14.6147C9.10059 16.5958 6.41004 18.1614 4.5383 19.3043C3.69302 19.8204 2.9902 20.2653 2.44622 20.6321C1.48146 21.1149 0.763522 21.8426 0.361318 22.7431C0.0615553 23.3816 -0.052392 24.054 0.0221115 24.726C0.0856438 25.3989 0.334683 26.0427 0.759671 26.6241C1.17317 27.2119 1.72712 27.6878 2.39149 28.03C3.05029 28.3805 3.79128 28.5825 4.57814 28.623C5.74068 28.7006 6.85793 28.4165 7.80708 27.7978C8.38356 27.5259 9.08103 27.1738 9.88777 26.7506C11.8083 25.7432 14.4832 24.2617 17.8974 22.3168C24.2103 18.7207 28.91 16.1836 32.0383 14.6712C31.4692 16.3795 30.9523 17.9753 30.4876 19.4584C29.5023 22.6035 28.5814 25.5595 27.725 28.3263C26.8665 31.0996 26.1397 33.5173 25.5454 35.5774C24.9457 37.6563 24.2302 40.3618 23.4 43.6851C22.554 47.0712 21.7729 50.9803 21.0539 55.405C20.3258 59.8854 19.8818 64.5554 19.7193 69.4135C19.5549 74.3274 19.8682 79.1861 20.6605 83.9879C21.4654 88.8669 22.9767 93.4414 25.2052 97.6995C27.4811 102.048 30.7036 105.846 34.849 109.081C39.0063 112.324 43.7851 114.714 49.1584 116.246C54.421 117.746 59.967 118.611 65.7861 118.85C71.4717 119.084 77.275 119.044 83.1953 118.732C89.0237 118.424 94.9557 118.097 100.991 117.749C107.023 117.401 113.608 117.017 120.744 116.597C127.904 116.175 136.291 115.594 145.902 114.852C155.494 114.112 166.696 113.271 179.507 112.33C192.296 111.39 206.906 110.477 223.339 109.589C239.754 108.703 257.957 107.978 277.949 107.416C297.924 106.854 318.702 106.628 340.283 106.738C361.863 106.848 382.926 107.305 403.472 108.108C424.037 108.912 443.51 109.87 461.891 110.98C480.297 112.092 497.31 113.118 512.93 114.056C528.578 114.996 542.617 115.618 555.042 115.919C567.498 116.221 578.406 116.011 587.753 115.279C597.085 114.548 605.266 113.323 612.27 111.584C619.193 109.866 625.364 107.844 630.766 105.508C636.06 103.219 640.97 100.834 645.493 98.3523C649.956 95.9032 654.317 93.4071 658.576 90.8641C663.003 88.2208 666.746 85.2673 669.774 81.9924C672.913 78.597 674.985 74.6378 676.01 70.1642C677.009 65.8002 677.246 61.1677 676.748 56.2799L676.033 49.2705L676.033 49.2654L676.033 49.2637L676.01 49.0469L675.946 48.8367L675.945 48.8351L675.944 48.8302L671.844 35.4622L671.842 35.4573L671.842 35.4561L671.796 35.306L665.033 20.7335L663.735 20.3849C662.78 20.1287 661.786 20.1435 660.841 20.4279C659.896 20.7124 659.102 21.2363 658.529 21.9526C657.956 22.669 657.665 23.5017 657.682 24.3765C657.688 24.6991 657.764 24.9931 657.791 25.0979L657.792 25.1025C657.834 25.2649 657.887 25.4433 657.946 25.625C658.063 25.9915 658.23 26.4657 658.44 27.0346C658.86 28.1776 659.483 29.7855 660.302 31.8485C661.898 35.8655 663.234 40.0313 664.31 44.3469C665.383 48.6549 666.141 52.9806 666.582 57.3246C667.013 61.577 666.811 65.3906 666.015 68.7862C665.243 72.0826 663.74 74.7875 661.553 76.9772C659.208 79.325 656.175 81.5912 652.41 83.7612C648.495 86.0182 644.348 88.3476 639.972 90.7496C635.668 93.1114 631.015 95.373 626.011 97.5333C621.113 99.6474 615.474 101.493 609.076 103.06C602.758 104.607 595.209 105.722 586.404 106.385C577.614 107.046 567.166 107.229 555.045 106.922C542.896 106.615 529.061 105.995 513.535 105.061C497.982 104.125 481.003 103.101 462.598 101.989C444.168 100.875 424.631 99.915 403.989 99.1076C383.328 98.2995 362.142 97.8397 340.432 97.728C318.724 97.6164 297.814 97.8427 277.702 98.4072C257.607 98.9713 239.295 99.6992 222.769 100.591C206.26 101.482 191.568 102.4 178.694 103.346C165.844 104.289 154.616 105.132 145.01 105.873C135.423 106.613 127.09 107.191 120.01 107.608C112.906 108.025 106.341 108.408 100.313 108.756C94.2892 109.103 88.3742 109.43 82.5683 109.737C76.8506 110.04 71.3488 110.082 66.0614 109.868C60.8946 109.658 56.166 108.92 51.8592 107.673C47.6449 106.452 44.0537 104.608 41.0431 102.15C38.0008 99.6666 35.6841 96.7832 34.073 93.4843C32.4162 90.0917 31.2708 86.3488 30.6545 82.2416C30.0291 78.0731 29.8002 73.7822 29.9712 69.3666C30.144 64.9057 30.5723 60.6078 31.2542 56.472C31.9446 52.2839 32.6857 48.6235 33.4748 45.4839C34.2794 42.2826 34.9661 39.6999 35.5356 37.7278C36.1102 35.7383 36.8199 33.3792 37.6655 30.6485C38.5131 27.9114 39.4283 24.9745 40.411 21.8376C40.7672 20.7009 41.136 19.4931 41.5175 18.2143C42.4724 19.8939 43.5347 21.9587 44.7045 24.423C48.337 32.0748 50.6799 37.0881 51.748 39.4911C52.3024 40.7384 52.8118 41.7701 53.2731 42.5334C53.4999 42.9086 53.7612 43.2968 54.0592 43.633C54.2471 43.8449 54.8765 44.5533 55.9677 44.8126C57.0048 45.0591 58.0697 45.0131 59.0741 44.6785C60.0785 44.3439 60.9092 43.7584 61.4972 42.9705C62.114 42.1442 62.0496 41.2498 62.0305 40.9846C61.9999 40.5607 61.9032 40.1179 61.7902 39.7034C61.5603 38.8603 61.1643 37.7853 60.6389 36.5194C60.4231 35.9996 60.1496 35.3662 59.8185 34.6197C59.1948 33.0221 58.4326 31.13 57.5338 28.9469C54.4347 21.4193 52.0863 15.8889 50.4951 12.3759C48.9241 8.90746 47.6889 6.39993 46.8123 4.96276C46.4136 4.30907 46.0899 3.78651 45.8444 3.40143C45.6479 3.09302 45.3938 2.69776 45.1835 2.45151C45.0153 2.25447 44.7751 1.98591 44.4771 1.65913C43.8064 0.923697 42.916 0.409801 41.88 0.160159C40.8439 -0.0894846 39.7788 -0.0467777 38.7731 0.284729C38.079 0.513526 37.2431 0.982659 36.758 1.86061C36.6239 2.10342 36.5349 2.34472 36.48 2.57876ZM663.36 23.9694C663.361 23.9718 663.364 23.9818 663.367 23.998C663.361 23.9752 663.359 23.9664 663.36 23.9694Z" fill="#E61B1B"/>
</svg>
