<svg viewBox="0 0 462 514" fill="none" xmlns="http://www.w3.org/2000/svg">
<path id="line-1" fill-rule="evenodd" clip-rule="evenodd" d="M441.68 18.9947C441.681 18.9955 441.681 18.9963 441.682 18.9972C443.104 20.4908 444.325 21.8106 445.35 22.9598C443.581 22.4032 441.611 21.7619 439.44 21.0353C435.87 19.8407 431.733 18.3945 427.026 16.6955C422.338 15.0034 416.869 12.9159 410.617 10.4312C404.25 7.90085 397.473 5.67489 390.289 3.75106C382.864 1.76277 374.933 1.22272 366.522 2.09589C357.918 2.98901 348.715 6.39942 338.939 12.1667C329.075 17.9861 318.702 26.9915 307.813 39.0776C296.839 51.2578 287.307 65.896 279.2 82.9619C271.065 100.087 265.926 117.931 263.789 136.483C261.662 154.949 261.705 173.107 263.924 190.954C266.128 208.689 269.218 225.355 273.197 240.95C277.152 256.451 280.887 270.325 284.403 282.571C287.905 294.77 290.951 305.87 293.542 315.87C296.134 325.88 298.603 335.81 300.946 345.661C303.284 355.485 305.398 365.523 307.289 375.776C309.174 385.991 310.611 396.5 311.601 407.302C312.587 418.064 312.855 428.974 312.403 440.032C311.956 450.999 310.237 460.883 307.274 469.706C304.337 478.454 300.049 485.192 294.488 490.054C288.816 495.013 282.27 498.536 274.821 500.627C267.2 502.766 259.342 504.067 251.243 504.527C243.02 504.995 235.019 505.19 227.238 505.112C219.424 505.034 210.854 504.829 201.526 504.496C192.21 504.163 180.711 503.573 167.026 502.724C153.34 501.876 138.327 500.845 121.988 499.633L97.4899 497.817L97.4817 497.816L97.4803 497.816L97.4758 497.816L97.472 497.815L97.4675 497.815L97.4663 497.815L97.4581 497.814L49.0488 493.916L49.0433 493.916L49.03 493.915L2.57663 490.659L1.75852 491.605C1.21108 492.239 0.886949 493.008 0.816203 493.842C0.745456 494.676 0.935382 495.489 1.36834 496.205C1.80126 496.921 2.43268 497.467 3.20403 497.792C3.44516 497.894 3.66408 497.939 3.70168 497.946L3.70579 497.947C3.7848 497.964 3.85921 497.977 3.91576 497.986C4.03201 498.004 4.16725 498.023 4.30834 498.04C4.5954 498.076 4.98899 498.12 5.47938 498.17C6.46441 498.272 7.89545 498.408 9.76649 498.579C13.5114 498.921 19.0517 499.402 26.3841 500.024C41.0502 501.267 56.4601 502.539 72.6138 503.84C88.7696 505.141 105.027 506.398 121.387 507.611C137.75 508.824 152.793 509.857 166.515 510.708C180.239 511.559 191.804 512.153 201.204 512.489C210.592 512.825 219.232 513.032 227.121 513.111C235.045 513.19 243.207 512.989 251.609 512.509C260.138 512.022 268.51 510.627 276.72 508.325C285.11 505.972 292.621 501.944 299.231 496.253C305.956 490.463 310.997 482.613 314.425 472.832C317.828 463.121 319.778 452.431 320.303 440.782C320.823 429.233 320.579 417.896 319.569 406.772C318.564 395.692 317.099 384.921 315.174 374.46C313.256 364.036 311.113 353.844 308.745 343.884C306.383 333.951 303.899 323.954 301.293 313.895C298.685 303.826 295.621 292.661 292.103 280.402C288.597 268.188 284.874 254.364 280.935 238.928C277.02 223.587 273.981 207.209 271.82 189.791C269.672 172.484 269.634 154.915 271.708 137.079C273.772 119.327 278.705 102.295 286.514 85.9725C294.353 69.5874 303.496 55.6468 313.927 44.1203C324.444 32.4978 334.211 24.0976 343.221 18.8105C352.325 13.4678 360.502 10.5403 367.784 9.85159C375.269 9.14352 382.224 9.70161 388.671 11.4926C395.36 13.351 401.742 15.4922 407.818 17.915C414.001 20.3804 419.485 22.4773 424.267 24.204C429.029 25.9236 433.231 27.393 436.871 28.6111C437.563 28.8428 438.237 29.0665 438.892 29.2821C436.888 29.7284 434.597 30.2257 432.016 30.7742C428.702 31.4785 426.149 32.0475 424.372 32.4796C423.572 32.6739 422.906 32.8462 422.389 32.995C421.474 33.1216 420.668 33.5553 420.067 34.2406C419.653 34.6978 419.365 35.2344 419.216 35.8195C419.059 36.403 419.047 37.0123 419.183 37.6136C419.311 38.2166 419.576 38.765 419.961 39.2299C420.341 39.6989 420.826 40.0663 421.392 40.3095C422.208 40.6743 423.102 40.7374 423.97 40.4886C424.512 40.4123 425.209 40.2948 426.046 40.1411C427.861 39.8077 430.448 39.2826 433.795 38.5698C440.486 37.1447 445.448 35.9376 448.618 34.9489C450.125 34.4788 451.518 33.8517 452.681 33.0238C453.143 33.0899 453.602 33.1472 454.058 33.1959C455.264 33.3244 456.264 33.4026 457.023 33.417C457.171 33.4198 457.322 33.4205 457.471 33.4177C457.623 33.4374 457.783 33.4459 457.948 33.4405C458.794 33.4127 459.44 33.0352 459.858 32.6722C460.49 32.1236 460.921 31.4084 461.11 30.5931C461.299 29.7778 461.227 28.9461 460.9 28.1754C460.725 27.7628 460.484 27.2983 460.136 26.8818C459.973 26.6857 459.376 26.0076 458.402 24.9085C457.369 23.7419 455.689 21.9669 453.388 19.605C451.074 17.2293 447.358 13.5058 442.249 8.4429C440.441 6.65139 438.923 5.16913 437.7 4.00083C437.232 3.51414 436.859 3.1306 436.58 2.85063C435.895 2.16345 435.279 1.58885 434.754 1.17598C434.498 0.973806 434.194 0.755064 433.866 0.581213C433.663 0.473202 432.929 0.0832409 432 0.221801C431.172 0.345243 430.425 0.717492 429.828 1.30389C429.231 1.89031 428.845 2.63062 428.707 3.45608C428.553 4.37564 428.921 5.11035 429.028 5.3208C429.195 5.65172 429.407 5.95885 429.603 6.21746C430.003 6.74543 430.561 7.36467 431.226 8.05048C431.652 8.48922 432.326 9.18945 433.247 10.1517C434.234 11.2091 435.4 12.4405 436.743 13.8442C438.571 15.7552 440.217 17.4721 441.68 18.9947Z" fill="#E61B1B"/>
</svg>
