<svg viewBox="0 0 728 122" fill="none" xmlns="http://www.w3.org/2000/svg">
<path id="line-3" fill-rule="evenodd" clip-rule="evenodd" d="M39.3195 21.2353C39.0516 24.5704 38.9431 28.1622 38.9969 32.0128C39.0868 38.4494 39.4162 45.1536 39.9859 52.1258C40.5526 59.0605 41.5134 65.7894 42.8671 72.3132C44.2073 78.7718 46.1842 84.6202 48.7818 89.8701C51.2621 94.8827 55.2717 99.204 60.8844 102.846C66.4044 106.428 73.8405 109.069 83.36 110.662C92.9701 112.271 103.632 113.053 115.362 112.991C127.196 112.928 138.99 112.513 150.743 111.744C162.577 110.97 173.811 110.249 184.445 109.58C195.093 108.911 206.638 108.259 219.078 107.625C231.495 106.992 246.514 106.166 264.139 105.148C281.776 104.13 301.576 103.038 323.539 101.875C345.522 100.71 368.541 99.6992 392.596 98.8419C416.667 97.9841 440.534 97.4728 464.196 97.3082C487.862 97.1436 509.612 97.3849 529.445 98.0333C549.256 98.6809 566.358 99.5722 580.741 100.709C595.076 101.843 607.324 102.986 617.477 104.14C627.554 105.286 636.467 106.214 644.219 106.926C651.886 107.63 659.125 107.931 665.938 107.834C672.726 107.738 678.893 107.18 684.453 106.174C690.008 105.169 694.425 103.768 697.8 102.033C701.195 100.287 703.842 98.1482 705.796 95.6168C707.845 92.9618 709.562 89.838 710.924 86.2213C712.319 82.5146 713.567 78.4875 714.665 74.1372C715.749 69.8364 716.443 65.529 716.746 61.2141C717.045 56.9638 716.764 52.6079 715.895 48.1431C715.019 43.6393 713.711 39.1653 711.969 34.7205C710.199 30.2043 708.353 25.951 706.431 21.9594C704.519 17.989 702.481 14.3362 700.32 10.9973C699.206 9.27677 698.352 7.93022 697.765 6.96686C697.472 6.48756 697.234 6.08347 697.059 5.76664C696.973 5.60972 696.889 5.45213 696.82 5.30547L696.818 5.30137C696.773 5.20635 696.645 4.93638 696.582 4.62671C696.411 3.78925 696.57 2.95287 697.043 2.19444C697.516 1.43616 698.255 0.834551 699.191 0.445001C700.128 0.0554865 701.164 -0.0815007 702.206 0.0466141L703.665 0.226086L712.585 12.3871L712.647 12.4936L712.648 12.4951L712.65 12.4994L712.661 12.517L719.638 24.4634L719.641 24.4678L719.642 24.4692L719.73 24.6201L719.792 24.7792L719.793 24.7809L719.795 24.786L719.803 24.8066L722.56 31.8156C724.452 36.6247 725.888 41.508 726.867 46.4646C727.853 51.4624 728.197 56.4059 727.893 61.2923C727.592 66.1206 726.856 70.9016 725.685 75.6342C724.527 80.3158 723.191 84.6681 721.674 88.688C720.12 92.8041 718.058 96.5622 715.474 99.9487C712.789 103.467 709.139 106.465 704.589 108.953C699.99 111.466 694.36 113.345 687.786 114.642C681.234 115.934 674.198 116.645 666.69 116.788C659.226 116.929 651.428 116.632 643.3 115.901C635.26 115.178 626.153 114.238 615.981 113.083C605.888 111.936 593.739 110.801 579.526 109.678C565.362 108.56 548.467 107.68 528.832 107.04C509.217 106.402 487.662 106.164 464.164 106.33C440.662 106.495 416.942 107.005 393.003 107.859C369.048 108.714 346.122 109.722 324.223 110.882C302.305 112.044 282.539 113.133 264.924 114.151C247.297 115.169 232.257 115.996 219.806 116.631C207.379 117.264 195.871 117.914 185.28 118.58C174.676 119.246 163.463 119.966 151.641 120.739C139.737 121.517 127.718 121.936 115.584 121.997C103.337 122.058 91.9457 121.209 81.4208 119.436C70.7838 117.643 61.8431 114.544 54.7246 110.054C47.6779 105.61 42.4466 100.242 39.105 93.956C35.8794 87.8888 33.513 81.3175 31.9934 74.2518C30.4922 67.2719 29.441 60.1635 28.8392 52.9271C28.2402 45.7247 27.9359 38.7498 27.9274 32.0029C27.9205 26.5073 28.2642 21.5231 28.9701 17.0596C26.4027 19.2403 22.6886 22.6735 17.8005 27.3969C15.066 30.0392 12.904 32.0731 11.3264 33.4841C10.6698 34.0714 10.0942 34.5689 9.60843 34.9649C8.85048 35.7909 7.80076 36.345 6.57393 36.5709C5.74052 36.7366 4.89539 36.736 4.08101 36.5721C3.2638 36.4175 2.51219 36.1062 1.8655 35.6516C1.20923 35.206 0.713027 34.655 0.399069 34.028C0.0740057 33.4047 -0.0551522 32.732 0.0214548 32.0434C0.107798 31.0816 0.583038 30.2023 1.40269 29.4914C1.81936 29.0146 2.36337 28.431 3.02037 27.7508C4.49488 26.2242 6.63888 24.108 9.43806 21.4136C15.0395 16.0217 19.528 12.0884 22.8593 9.70558C25.5018 7.81543 28.3951 6.60857 31.4693 6.35393C31.4719 6.34746 31.4746 6.34096 31.4772 6.33444C31.6585 5.65371 32.1236 4.94394 33.0541 4.43413C34.0217 3.90394 35.1367 3.64255 36.3065 3.67167C37.4762 3.70079 38.5691 4.01716 39.4942 4.59447C40.3381 5.12108 41.0084 5.85349 41.5487 6.5618C42.0329 7.19648 43.2911 8.89808 45.3027 11.6372C47.3691 14.451 50.5194 19.1588 54.7335 25.7183C55.8242 27.416 56.7722 28.9156 57.5755 30.2144C58.1494 31.0523 58.6144 31.7489 58.9696 32.3033C59.6844 33.419 60.2454 34.3844 60.6032 35.162C60.7793 35.5448 60.9445 35.9634 61.0363 36.3772C61.0995 36.6623 61.2703 37.493 60.7693 38.3422C60.2669 39.1935 59.4688 39.8728 58.4411 40.3238C57.4134 40.7747 56.2718 40.9465 55.1113 40.8248C53.9347 40.7014 53.158 40.1206 52.8934 39.9169C52.5125 39.6237 52.1711 39.2785 51.8757 38.9486C51.2752 38.278 50.5986 37.368 49.8567 36.2745C49.6486 35.9677 49.4062 35.6132 49.1296 35.2108C48.0741 33.7721 46.8127 32.0004 45.3481 29.9015C43.8126 27.7008 42.4212 25.6782 41.1751 23.8348C41.0288 23.627 40.8808 23.4169 40.7311 23.2044C40.2413 22.5092 39.7708 21.853 39.3195 21.2353Z" fill="#E61B1B"/>
</svg>
