<svg viewBox="0 0 593 120" fill="none" xmlns="http://www.w3.org/2000/svg">
<path id="wireframe-line-2" fill-rule="evenodd" clip-rule="evenodd" d="M32.4097 2.82022C32.2895 3.09277 32.1691 3.38908 32.0488 3.70101C31.8888 4.1159 31.7161 4.5927 31.5309 5.12989C29.7196 5.2289 27.8666 5.71505 26.0002 6.53579C22.4851 8.08159 17.6369 10.8763 11.515 14.8391C8.45899 16.8174 6.10537 18.3808 4.46803 19.5221C3.7286 20.0375 3.11379 20.4817 2.63794 20.848C1.79398 21.3301 1.16595 22.0568 0.814118 22.9559C0.551894 23.5936 0.452216 24.265 0.517389 24.9361C0.572966 25.608 0.790819 26.2509 1.16259 26.8315C1.5243 27.4184 2.00889 27.8937 2.59006 28.2354C3.16636 28.5854 3.81456 28.7871 4.50288 28.8276C5.51983 28.905 6.49718 28.6213 7.32747 28.0035C7.83175 27.732 8.44189 27.3804 9.1476 26.9578C10.8277 25.9518 13.1676 24.4725 16.1542 22.5303C21.6765 18.9392 25.7877 16.4058 28.5243 14.8956C28.0265 16.6014 27.5742 18.195 27.1678 19.6759C26.3058 22.8166 25.5003 25.7684 24.7511 28.5312C24.0001 31.3006 23.3644 33.7149 22.8445 35.7721C22.3198 37.848 21.694 40.5497 20.9677 43.8683C20.2277 47.2497 19.5444 51.1532 18.9154 55.5716C18.2785 60.0457 17.8901 64.709 17.7479 69.5602C17.6041 74.4672 17.8782 79.319 18.5712 84.114C19.2754 88.9861 20.5974 93.5541 22.5468 97.8062C24.5378 102.149 27.3567 105.941 30.983 109.171C34.6197 112.41 38.8 114.797 43.5005 116.326C48.104 117.825 52.9555 118.688 58.0459 118.927C63.0196 119.16 68.0961 119.12 73.275 118.809C78.3735 118.502 83.5627 118.174 88.8425 117.827C94.1192 117.48 99.8789 117.096 106.121 116.677C112.385 116.256 119.722 115.675 128.129 114.934C136.52 114.195 146.319 113.356 157.526 112.416C168.713 111.478 181.494 110.565 195.869 109.679C210.228 108.794 226.152 108.07 243.64 107.509C261.114 106.948 279.29 106.722 298.169 106.832C317.046 106.942 335.471 107.398 353.445 108.2C371.434 109.003 388.468 109.959 404.547 111.068C420.649 112.179 435.531 113.203 449.195 114.14C462.883 115.078 475.164 115.699 486.034 116C496.929 116.301 506.472 116.091 514.648 115.361C522.812 114.631 529.968 113.408 536.095 111.671C542.151 109.955 547.549 107.937 552.275 105.604C556.906 103.318 561.201 100.936 565.157 98.4581C569.062 96.0124 572.876 93.5198 576.602 90.9804C580.474 88.3409 583.75 85.3916 586.398 82.1213C589.144 78.7307 590.957 74.7771 591.853 70.3099C592.727 65.9521 592.934 61.3261 592.498 56.4453L591.873 49.4458L591.873 49.4407L591.873 49.439L591.853 49.2225L591.797 49.0126L591.797 49.011L591.795 49.0061L588.208 35.6571L588.207 35.6522L588.207 35.651L588.167 35.5011L582.251 20.9492L581.115 20.6012C580.279 20.3453 579.41 20.3601 578.584 20.6441C577.757 20.9282 577.063 21.4513 576.561 22.1666C576.06 22.8819 575.805 23.7135 575.82 24.5871C575.825 24.9092 575.892 25.2028 575.915 25.3075L575.916 25.3121C575.953 25.4743 576 25.6524 576.051 25.8338C576.154 26.1998 576.3 26.6733 576.483 27.2414C576.851 28.3828 577.395 29.9884 578.112 32.0485C579.508 36.0598 580.677 40.2197 581.618 44.5292C582.557 48.8311 583.22 53.1507 583.605 57.4885C583.983 61.7349 583.806 65.543 583.11 68.9338C582.435 72.2256 581.12 74.9266 579.207 77.1132C577.155 79.4577 574.502 81.7207 571.209 83.8876C567.783 86.1414 564.156 88.4675 560.328 90.8661C556.563 93.2245 552.493 95.483 548.115 97.6402C543.831 99.7513 538.897 101.595 533.301 103.159C527.774 104.704 521.171 105.817 513.468 106.479C505.779 107.14 496.64 107.322 486.036 107.016C475.409 106.71 463.306 106.09 449.725 105.157C436.119 104.223 421.266 103.2 405.166 102.09C389.044 100.978 371.954 100.019 353.896 99.2123C335.823 98.4053 317.29 97.9462 298.299 97.8347C279.309 97.7232 261.018 97.9492 243.424 98.5129C225.846 99.0762 209.827 99.803 195.37 100.694C180.928 101.584 168.076 102.5 156.815 103.444C145.574 104.387 135.752 105.228 127.349 105.968C118.962 106.707 111.673 107.284 105.48 107.7C99.2654 108.118 93.5218 108.5 88.2492 108.847C82.9796 109.193 77.8054 109.52 72.7265 109.827C67.7249 110.129 62.912 110.172 58.2867 109.957C53.767 109.748 49.6306 109.011 45.8631 107.765C42.1765 106.546 39.035 104.705 36.4015 102.251C33.7401 99.7705 31.7135 96.8911 30.3042 93.597C28.8548 90.2091 27.8529 86.4716 27.3138 82.3701C26.7667 78.2076 26.5664 73.9227 26.7161 69.5135C26.8672 65.0588 27.2419 60.767 27.8383 56.6371C28.4423 52.4549 29.0906 48.7997 29.7809 45.6646C30.4847 42.4678 31.0854 39.8888 31.5836 37.9195C32.0863 35.9328 32.7071 33.577 33.4468 30.8502C34.1883 28.117 34.9888 25.1842 35.8485 22.0518C36.16 20.9167 36.4827 19.7106 36.8164 18.4336C37.6517 20.1108 38.581 22.1727 39.6043 24.6335C42.7819 32.2744 44.8315 37.2806 45.7658 39.6802C46.2508 40.9258 46.6964 41.956 47.0999 42.7182C47.2983 43.0929 47.5268 43.4806 47.7876 43.8163C47.9519 44.0278 48.5025 44.7352 49.4571 44.9942C50.3643 45.2403 51.2959 45.1944 52.1745 44.8603C53.053 44.5262 53.7797 43.9415 54.2941 43.1548C54.8337 42.3296 54.7773 41.4365 54.7606 41.1716C54.7339 40.7484 54.6493 40.3061 54.5504 39.8923C54.3493 39.0503 54.0029 37.9768 53.5433 36.7128C53.3545 36.1937 53.1152 35.5612 52.8257 34.8158C52.28 33.2204 51.6132 31.331 50.827 29.151C48.116 21.634 46.0617 16.1115 44.6698 12.6035C43.2955 9.13995 42.215 6.63598 41.4482 5.20085C41.0994 4.54808 40.8162 4.02626 40.6015 3.64173C40.4296 3.33376 40.2073 2.93905 40.0234 2.69316C39.8762 2.49639 39.666 2.22821 39.4054 1.9019C38.8187 1.16751 38.0398 0.654338 37.1335 0.405049C36.2272 0.155759 35.2954 0.198406 34.4157 0.529443C33.8085 0.757915 33.0773 1.22638 32.653 2.10309C32.5356 2.34556 32.4577 2.58651 32.4097 2.82022ZM580.787 24.1806C580.788 24.183 580.79 24.1929 580.793 24.2091C580.788 24.1864 580.787 24.1776 580.787 24.1806Z" fill="#E61B1B"/>
</svg>
