<svg viewBox="0 0 256 524" fill="none" xmlns="http://www.w3.org/2000/svg">
<path id="wireframe-line-1" fill-rule="evenodd" clip-rule="evenodd" d="M229.613 8.69883C230.827 9.43413 232.443 10.3563 234.446 11.4595C236.621 12.658 238.499 13.6861 240.078 14.5424C239.111 14.6856 238.086 14.8393 237.003 15.0035C227.425 16.4553 220.675 17.9362 217.081 19.5229C213.664 21.0316 210.687 22.8142 208.181 24.8901C205.668 26.9715 203.568 29.403 201.89 32.1773C200.158 35.0403 198.683 39.2323 197.391 44.5699C196.084 49.9656 194.789 57.7753 193.496 67.9431C192.2 78.1456 191.011 90.8107 189.927 105.928C188.842 121.062 188 138.562 187.401 158.424C186.802 178.298 186.581 200.265 186.738 224.325C186.895 248.394 187.534 272.474 188.656 296.565C189.777 320.653 191.238 342.706 193.037 362.722C194.835 382.718 196.695 400.49 198.616 416.038C200.534 431.557 202.227 444.85 203.695 455.916C205.158 466.952 206.139 475.786 206.643 482.434C207.148 489.086 207.12 494.101 206.626 497.57C206.104 501.228 205.474 504.067 204.763 506.144C204.02 508.317 203.27 509.899 202.551 510.975C201.784 512.122 200.995 512.979 200.202 513.597C199.52 514.13 198.717 514.478 197.737 514.625C196.578 514.799 194.866 514.866 192.534 514.785C190.185 514.704 186.988 514.519 182.93 514.228C178.884 513.938 174.041 513.528 168.4 512.997C162.767 512.467 156.431 511.799 149.388 510.993C142.35 510.187 134.751 509.242 126.589 508.157C118.411 507.07 110.431 506.032 102.649 505.043C94.8542 504.053 86.8637 503.125 78.6778 502.26C70.4962 501.395 62.41 500.603 54.4192 499.883L42.4555 498.805L42.4533 498.804L42.4384 498.803L42.4241 498.802L21.381 497.146L21.3166 497.141L1.97494 496.612L1.1986 497.54C0.63493 498.213 0.308501 499.024 0.248282 499.9C0.188064 500.776 0.400491 501.624 0.866735 502.368C1.33297 503.112 2.00311 503.673 2.81773 504.001C3.13684 504.13 3.46939 504.184 3.57448 504.201L3.58764 504.203C3.76457 504.233 3.97096 504.26 4.19243 504.287C4.63966 504.34 5.24256 504.399 5.9885 504.464C7.48548 504.595 9.63319 504.756 12.423 504.949C17.984 505.332 24.263 505.799 31.2605 506.35C38.2534 506.9 45.7281 507.533 53.6847 508.251C61.6364 508.967 69.6818 509.756 77.8211 510.616C85.956 511.475 93.8908 512.397 101.626 513.38C109.374 514.366 117.329 515.401 125.493 516.485C133.673 517.573 141.31 518.523 148.403 519.335C155.491 520.147 161.884 520.821 167.581 521.357C173.269 521.892 178.175 522.308 182.295 522.603C186.405 522.898 189.71 523.089 192.198 523.174C194.713 523.26 196.878 523.206 198.658 522.988C200.49 522.764 202.308 522.287 204.108 521.57C206.201 520.737 208.029 519.279 209.62 517.357C211.264 515.37 212.539 512.844 213.507 509.877C214.494 506.853 215.101 503.205 215.373 498.985C215.647 494.73 215.518 489.097 215.011 482.13C214.503 475.141 213.508 466.065 212.032 454.916C210.56 443.8 208.867 430.492 206.951 414.992C205.039 399.521 203.187 381.828 201.397 361.911C199.609 342.016 198.157 320.08 197.042 296.1C195.926 272.125 195.291 248.159 195.136 224.203C194.98 200.238 195.201 178.377 195.798 158.617C196.395 138.846 197.232 121.463 198.308 106.463C199.386 91.4454 200.562 78.9356 201.836 68.9223C203.114 58.8718 204.36 51.3884 205.565 46.4129C206.791 41.3523 208.032 38.0136 209.199 36.151C210.439 34.1724 211.973 32.4599 213.808 31.0047C215.656 29.5399 217.977 28.1925 220.808 26.9846C223.381 25.8872 228.924 24.5509 237.715 23.0191C236.688 23.8068 235.565 24.6702 234.347 25.6093C232.117 27.3283 230.393 28.6941 229.19 29.6978C228.688 30.1166 228.258 30.4877 227.912 30.8048C227.165 31.3311 226.64 32.0704 226.391 32.944C226.205 33.5621 226.173 34.1984 226.294 34.8187C226.407 35.4404 226.669 36.0212 227.067 36.529C227.458 37.0427 227.953 37.4425 228.526 37.7091C229.096 37.9832 229.719 38.1131 230.365 38.0892C231.27 38.0697 232.116 37.7504 232.813 37.1629C233.21 36.9074 233.682 36.5835 234.219 36.201C235.501 35.2892 237.267 33.9641 239.506 32.2377C243.977 28.7907 247.329 26.1076 249.534 24.2037C250.984 22.9517 252.26 21.6395 253.105 20.2756C253.136 20.266 253.166 20.2558 253.196 20.2451C253.748 20.0471 254.105 19.7126 254.293 19.5061C254.652 19.1117 254.849 18.6721 254.945 18.4403C255.282 17.6295 255.352 16.7584 255.148 15.9042C254.945 15.05 254.489 14.3041 253.822 13.7328C253.8 13.7133 253.779 13.6954 253.76 13.6791C253.681 13.5586 253.58 13.4071 253.461 13.2307C253.181 12.817 252.815 12.5032 252.598 12.3256C252.332 12.1086 252.019 11.8825 251.681 11.6529C251 11.1916 250.091 10.6322 248.977 9.98196C246.738 8.67599 243.197 6.74674 238.379 4.20505C236.293 3.10488 234.594 2.24174 233.295 1.62626C232.791 1.33095 232.453 1.13441 232.283 1.03695C231.809 0.766101 231.254 0.509135 230.651 0.378171C230.041 0.24586 229.211 0.208942 228.375 0.610031C227.543 1.0096 226.88 1.64235 226.441 2.45481C226.003 3.2673 225.838 4.16915 225.961 5.0841C226.19 6.79333 227.594 7.67319 228.381 8.06923C228.564 8.16164 228.975 8.37139 229.613 8.69883ZM4.34658 499.26C4.34729 499.26 4.36005 499.262 4.38229 499.267C4.35695 499.262 4.34588 499.26 4.34658 499.26Z" fill="#E61B1B"/>
</svg>
