<svg viewBox="0 0 216 344" fill="none" xmlns="http://www.w3.org/2000/svg">
<path id="Vector 872 (Stroke)" fill-rule="evenodd" clip-rule="evenodd" d="M189.979 8.3943C191.148 9.31687 192.668 10.4814 194.531 11.8835C197.36 14.0127 199.776 15.8123 201.776 17.28C195.18 17.53 188.054 17.6926 180.398 17.7678C172.55 17.8448 164.833 18.2233 157.247 18.9037C149.623 19.5876 142.717 20.7135 136.541 22.2922C130.326 23.8807 125.216 26.0593 121.333 28.9132C117.481 31.7444 114.644 35.1641 112.937 39.1861C111.333 42.9629 110.25 47.023 109.677 51.3549C109.114 55.6 108.799 60.4093 108.723 65.7732C108.648 71.1035 108.693 77.4317 108.858 84.753C109.023 92.0628 109.255 100.614 109.555 110.405C109.855 120.231 110.41 130.772 111.219 142.026C112.029 153.304 113.192 164.443 114.707 175.442C116.219 186.41 117.828 196.908 119.534 206.936C121.233 216.916 122.696 226.277 123.925 235.02C125.149 243.722 125.889 251.677 126.152 258.887C126.416 266.117 126.273 272.53 125.732 278.138C125.184 283.816 124.471 288.776 123.597 293.028C122.719 297.306 121.713 301.078 120.587 304.353C119.46 307.632 118.152 310.635 116.669 313.368C115.194 316.085 113.423 318.691 111.35 321.184C109.404 323.526 106.719 325.733 103.223 327.776C99.8355 329.756 95.3397 331.393 89.6548 332.628C83.9718 333.862 77.3883 334.673 69.889 335.045L58.5976 335.606L33.3493 334.622L2.61448 332.328L1.79249 333.262C1.25993 333.867 0.940738 334.606 0.86555 335.409C0.790356 336.211 0.96668 336.997 1.37753 337.691C1.78842 338.384 2.39296 338.916 3.13287 339.236C3.43576 339.366 3.73778 339.418 3.75419 339.421C3.85611 339.44 3.96615 339.458 4.06907 339.473C4.27933 339.504 4.55429 339.54 4.88234 339.579C5.54322 339.659 6.48807 339.762 7.70914 339.889C10.1548 340.142 13.7515 340.494 18.4948 340.945C28.0184 341.848 37.0654 342.468 45.635 342.803C54.2192 343.139 62.3961 343.116 70.1644 342.732C77.956 342.347 84.9451 341.492 91.1182 340.153C97.2984 338.814 102.536 336.954 106.765 334.522C110.898 332.145 114.303 329.444 116.915 326.392C119.408 323.48 121.529 320.44 123.272 317.27C125 314.127 126.496 310.728 127.766 307.077C129.036 303.425 130.141 299.317 131.086 294.762C132.036 290.183 132.795 284.937 133.369 279.036C133.95 273.065 134.102 266.318 133.837 258.803C133.571 251.269 132.81 243.032 131.561 234.098C130.318 225.205 128.841 215.733 127.131 205.685C125.43 195.686 123.829 185.24 122.328 174.348C120.831 163.486 119.685 152.5 118.889 141.388C118.091 130.252 117.544 119.828 117.248 110.117C116.951 100.37 116.72 91.8555 116.556 84.5708C116.392 77.2975 116.347 71.0561 116.421 65.8419C116.494 60.6585 116.79 56.1284 117.303 52.2407C117.806 48.4285 118.718 44.9958 120.021 41.9261C121.219 39.1058 123.23 36.6733 126.164 34.635C129.095 32.5986 133.277 30.8641 138.843 29.5198C144.433 28.17 150.863 27.1701 158.144 26.5309C165.452 25.8894 172.938 25.5307 180.602 25.4554C188.366 25.3792 195.601 25.1272 202.305 24.6985C202.31 24.6982 202.315 24.6979 202.319 24.6976C200.491 25.867 198.098 27.3132 195.123 29.0421C192.776 30.4063 190.965 31.486 189.706 32.2748C189.179 32.6045 188.73 32.8954 188.369 33.1424C187.579 33.5415 186.979 34.186 186.643 34.9938C186.408 35.5392 186.31 36.1194 186.354 36.7004C186.392 37.2821 186.569 37.8432 186.879 38.3504C187.182 38.8614 187.594 39.281 188.09 39.5868C188.582 39.8982 189.14 40.0843 189.733 40.1319C190.56 40.2096 191.368 40.009 192.066 39.551C192.476 39.3505 192.984 39.0845 193.578 38.7619C194.906 38.0407 196.77 36.9786 199.16 35.5838C203.944 32.792 207.485 30.505 209.683 28.7441C211.45 27.3291 212.73 25.6197 213.229 23.6383C213.627 23.475 214.02 23.2023 214.355 22.7706C214.85 22.1342 215.124 21.3767 215.15 20.5711C215.176 19.7655 214.952 18.9919 214.5 18.3247C214.164 17.8293 213.684 17.3585 213.234 16.9551C212.777 16.5462 211.552 15.5039 209.606 13.8671C207.561 12.1463 204.008 9.49508 199.009 5.9451C198.013 5.23784 197.108 4.59979 196.292 4.03169C195.336 3.31858 194.571 2.76108 193.999 2.36083C193.144 1.7621 192.405 1.27893 191.813 0.946971C191.524 0.784948 191.198 0.617981 190.869 0.495571C190.705 0.434521 190.476 0.359867 190.208 0.315438C189.975 0.276851 189.486 0.220427 188.918 0.398342C188.149 0.639625 187.493 1.10637 187.013 1.75361C186.532 2.40083 186.276 3.1642 186.267 3.97027C186.261 4.58264 186.469 5.04603 186.582 5.26578C186.711 5.51582 186.858 5.71625 186.969 5.8552C187.193 6.13376 187.459 6.39212 187.704 6.61364C188.209 7.06821 188.904 7.61021 189.745 8.22314C189.819 8.27739 189.897 8.33444 189.979 8.3943Z" fill="#E61B1B"/>
</svg>
