<?xml version="1.0" standalone="no"?>
<!DOCTYPE svg PUBLIC "-//W3C//DTD SVG 20010904//EN"
 "http://www.w3.org/TR/2001/REC-SVG-20010904/DTD/svg10.dtd">
<svg version="1.0" xmlns="http://www.w3.org/2000/svg"
 width="1112.000000pt" height="1112.000000pt" viewBox="0 0 1112.000000 1112.000000"
 preserveAspectRatio="xMidYMid meet">
<metadata>
Created by potrace 1.14, written by Peter Selinger 2001-2017
</metadata>
<g transform="translate(0.000000,1112.000000) scale(0.100000,-0.100000)"
fill="#000000" stroke="none">
<path d="M550 9540 c-12 -10 -25 -20 -29 -22 -14 -7 -80 -106 -101 -153 -12
-27 -28 -63 -35 -80 -14 -31 -71 -213 -81 -256 -3 -13 -7 -37 -10 -54 -3 -16
-8 -37 -11 -45 -3 -8 -7 -22 -8 -30 -1 -8 -18 -103 -38 -210 -20 -107 -39
-211 -42 -230 -3 -19 -10 -60 -15 -90 -5 -30 -12 -75 -14 -100 -3 -25 -8 -54
-10 -66 -6 -28 -17 -114 -30 -229 -3 -27 -8 -66 -11 -85 -16 -111 -31 -274
-40 -415 -2 -44 -7 -118 -9 -165 -3 -47 -8 -130 -11 -185 -3 -55 -7 -138 -10
-185 -3 -47 -7 -128 -10 -180 -3 -52 -8 -131 -10 -175 -16 -275 -19 -443 -18
-880 1 -683 22 -1527 37 -1543 3 -2 1 -15 -4 -28 -5 -13 -6 -24 -2 -24 4 0 9
-28 11 -63 1 -34 4 -80 6 -102 2 -22 7 -69 9 -105 7 -81 16 -183 21 -235 2
-22 6 -65 9 -95 3 -30 8 -80 11 -110 3 -30 8 -80 10 -110 3 -30 7 -70 10 -88
2 -18 9 -69 15 -115 6 -45 13 -93 15 -107 2 -14 6 -50 10 -80 3 -30 8 -66 11
-80 2 -14 6 -41 9 -60 14 -124 19 -156 28 -185 3 -11 9 -38 12 -60 4 -22 8
-44 9 -50 2 -5 6 -28 11 -50 4 -22 10 -49 12 -60 3 -11 6 -29 8 -40 1 -11 8
-38 13 -60 6 -22 13 -51 16 -65 21 -109 105 -354 153 -445 30 -58 78 -114 113
-132 33 -17 92 -18 1255 -18 926 0 1228 3 1255 12 30 10 54 32 101 91 6 7 17
27 25 45 8 17 18 39 23 47 33 54 137 395 157 515 1 11 5 29 8 40 23 98 27 120
42 215 12 74 12 74 62 18 87 -97 196 -201 303 -288 23 -19 48 -41 55 -47 7 -7
16 -13 21 -13 5 0 15 -9 23 -20 8 -11 20 -20 26 -20 6 0 17 -6 23 -14 15 -18
246 -173 331 -222 110 -64 314 -164 332 -164 10 0 18 -4 18 -10 0 -5 8 -10 18
-10 10 0 22 -3 26 -7 4 -5 11 -8 14 -8 4 -1 23 -6 43 -13 20 -7 45 -15 55 -17
10 -2 39 -10 64 -16 25 -6 54 -13 65 -15 11 -2 49 -10 85 -19 70 -17 191 -41
255 -49 41 -6 105 -12 255 -23 118 -10 2397 -9 2545 0 171 11 181 12 325 36
83 14 87 15 200 42 52 13 97 23 100 24 16 3 178 57 195 65 11 5 56 23 100 41
81 31 271 124 335 164 260 162 477 335 655 524 39 41 81 86 95 101 14 14 43
48 65 75 22 28 48 58 58 67 9 10 14 18 10 18 -5 0 -3 4 2 8 6 4 33 36 60 72
27 36 53 67 57 68 4 2 8 8 8 13 0 6 17 33 38 62 53 71 157 240 154 250 -1 4 1
7 6 7 4 0 23 30 42 67 19 38 38 70 41 73 3 3 14 24 24 48 11 23 23 42 29 42 5
0 7 3 4 6 -4 3 10 38 29 77 65 131 195 450 208 512 3 11 9 29 14 40 5 11 13
34 17 50 10 39 11 44 14 50 1 3 3 8 4 13 2 4 8 27 16 52 7 25 15 54 17 65 2
11 7 31 13 45 5 14 11 39 14 57 2 17 6 35 9 40 3 4 8 25 11 45 3 21 10 58 16
83 6 25 13 62 16 81 3 20 8 46 10 58 2 11 7 44 10 71 3 28 8 61 10 75 4 24 7
50 19 170 25 252 25 715 0 1000 -3 30 -7 82 -10 115 -3 33 -7 71 -10 85 -2 14
-7 48 -10 75 -3 28 -10 77 -16 110 -7 33 -13 69 -15 80 -1 11 -8 43 -13 70
-20 90 -21 95 -25 118 -3 12 -17 65 -32 117 -14 52 -28 102 -29 110 -2 8 -4
16 -5 18 -2 1 -3 5 -5 10 -1 4 -4 14 -8 22 -3 8 -20 60 -38 115 -17 55 -40
118 -50 139 -11 22 -19 43 -19 47 0 3 -8 24 -17 45 -9 22 -17 44 -19 49 -5 26
-185 397 -230 475 -135 232 -229 381 -246 388 -5 2 -8 8 -8 13 0 37 -308 385
-469 529 -34 30 -80 72 -102 93 -23 20 -44 37 -48 37 -3 0 -17 10 -31 23 -41
37 -195 147 -205 147 -3 0 -15 8 -26 18 -10 11 -32 25 -47 33 -15 8 -54 30
-87 50 -91 55 -392 196 -435 205 -3 0 -18 6 -35 13 -81 34 -326 98 -445 117
-19 3 -46 7 -60 10 -14 2 -50 8 -80 12 -73 9 -2800 9 -2870 -1 -30 -4 -75 -10
-100 -13 -25 -3 -56 -8 -70 -10 -14 -3 -47 -9 -75 -14 -48 -8 -159 -33 -200
-44 -277 -76 -505 -174 -702 -302 -28 -19 -54 -34 -58 -34 -3 0 -12 -6 -19
-12 -8 -7 -24 -20 -36 -28 -48 -32 -217 -159 -246 -185 -6 -5 -42 -37 -79 -70
-73 -64 -83 -73 -192 -177 -39 -38 -70 -68 -68 -68 2 0 -10 -13 -25 -30 -15
-16 -32 -30 -38 -30 -5 0 -13 26 -18 58 -4 31 -8 59 -9 62 -1 3 -5 25 -9 50
-13 68 -12 66 -46 214 -18 76 -38 156 -45 177 -8 22 -12 39 -8 39 3 0 1 6 -4
13 -5 6 -21 47 -34 89 -13 43 -27 78 -31 78 -5 0 -8 6 -8 13 0 39 -92 186
-135 216 l-32 21 -1246 -1 c-1204 0 -1246 -1 -1267 -19z m6358 -339 c19 -11
41 -26 51 -35 10 -9 22 -16 27 -16 6 0 19 -8 30 -17 10 -10 39 -31 64 -48 45
-30 60 -41 83 -60 7 -6 28 -22 47 -35 19 -14 42 -30 50 -37 8 -7 33 -26 55
-43 209 -164 366 -322 512 -515 37 -49 70 -92 74 -95 15 -13 104 -140 148
-214 148 -246 381 -685 381 -719 0 -7 4 -17 8 -22 20 -22 133 -362 148 -441 3
-21 11 -45 17 -51 5 -7 7 -13 4 -13 -3 0 -1 -15 3 -32 9 -31 19 -82 25 -118 1
-8 5 -26 9 -40 4 -14 8 -36 10 -50 2 -14 6 -36 9 -50 4 -14 9 -40 12 -57 17
-107 28 -183 31 -213 1 -14 4 -45 7 -70 19 -148 23 -194 33 -385 13 -255 3
-666 -21 -841 -3 -27 -8 -67 -11 -89 -2 -22 -6 -51 -9 -65 -3 -14 -7 -43 -10
-65 -7 -48 -9 -61 -18 -100 -4 -16 -9 -41 -11 -55 -2 -14 -12 -59 -21 -100
-22 -99 -23 -104 -25 -110 -1 -3 -3 -9 -5 -15 -1 -5 -3 -12 -4 -15 -3 -6 -7
-23 -15 -59 -3 -13 -10 -38 -16 -56 -6 -18 -12 -41 -14 -51 -2 -10 -27 -86
-56 -169 -28 -82 -53 -154 -54 -160 -2 -5 -8 -23 -14 -38 -7 -16 -21 -52 -33
-80 -40 -97 -64 -151 -121 -269 -32 -64 -58 -119 -58 -121 0 -4 -59 -108 -90
-157 -82 -132 -114 -180 -121 -180 -5 0 -9 -6 -9 -13 0 -7 -9 -23 -20 -35 -11
-12 -20 -24 -20 -28 0 -3 -10 -18 -22 -33 -13 -15 -32 -40 -43 -55 -22 -31
-69 -92 -88 -116 -7 -8 -23 -30 -36 -48 -71 -101 -311 -339 -449 -446 -15 -11
-31 -24 -37 -29 -10 -8 -128 -95 -175 -130 -77 -55 -253 -164 -332 -204 -26
-13 -33 -12 -100 24 -358 186 -723 503 -1028 893 -41 52 -77 97 -80 100 -3 3
-9 12 -15 21 -5 9 -41 63 -80 120 -72 106 -89 133 -101 159 -4 8 -15 26 -24
40 -32 46 -125 234 -179 360 -29 69 -59 140 -67 158 -9 18 -17 41 -19 51 -2
10 -8 27 -13 37 -6 11 -20 46 -32 79 -12 33 -26 68 -31 77 -5 10 -9 25 -9 33
0 8 -4 23 -9 33 -17 32 -102 330 -116 407 -3 19 -4 22 -6 28 0 1 -5 22 -10 47
-5 25 -11 54 -13 65 -6 27 -15 82 -22 125 -2 19 -9 61 -15 93 -5 31 -7 62 -4
67 3 6 3 10 -2 10 -4 0 -9 17 -9 38 -1 20 -4 64 -8 97 -3 33 -8 80 -11 105
-29 278 -24 681 11 950 3 19 6 53 9 74 2 22 7 62 11 90 4 28 8 56 9 61 0 6 5
33 10 60 5 28 10 57 10 65 1 8 7 40 13 70 7 30 14 69 17 85 2 17 13 68 25 115
11 47 23 94 25 105 2 11 4 21 4 23 1 1 1 4 1 7 1 3 7 23 15 45 8 22 12 40 9
40 -3 0 -2 6 3 13 4 6 8 14 9 17 4 24 67 224 81 260 4 8 7 17 7 20 3 15 52
134 80 195 18 39 43 94 56 123 13 28 27 52 32 52 4 0 8 6 8 13 0 16 88 187
142 276 21 34 38 65 38 67 0 8 95 149 103 152 4 2 7 8 7 13 0 11 81 122 93
127 4 2 7 8 7 14 0 8 48 71 95 124 6 6 24 28 40 49 64 82 226 249 351 362 72
65 103 91 190 161 48 39 276 189 317 208 20 10 37 21 37 26 0 4 6 8 13 8 7 0
32 11 57 24 l45 24 55 -29 c30 -16 70 -38 88 -48z"/>
</g>
</svg>
